<svg xmlns="http://www.w3.org/2000/svg" viewBox="0 0 512 512" role="img" aria-labelledby="title desc">
  <title id="title">Three of Swords pip</title>
  <desc id="desc">Three of Swords — Dolor, sorrow and heart-pierce. Air element, Minor Arcana.</desc>

  <defs>
    <radialGradient id="bgNight" cx="50%" cy="50%" r="75%">
      <stop offset="0%" stop-color="#1a0f2e"/>
      <stop offset="55%" stop-color="#0d0719"/>
      <stop offset="100%" stop-color="#05020e"/>
    </radialGradient>
    <radialGradient id="vignette" cx="50%" cy="50%" r="70%">
      <stop offset="0%" stop-color="#000000" stop-opacity="0"/>
      <stop offset="70%" stop-color="#000000" stop-opacity="0"/>
      <stop offset="100%" stop-color="#000000" stop-opacity="0.55"/>
    </radialGradient>
    <radialGradient id="airWash" cx="50%" cy="50%" r="45%">
      <stop offset="0%" stop-color="#4466aa" stop-opacity="0.16"/>
      <stop offset="60%" stop-color="#2c4a7a" stop-opacity="0.07"/>
      <stop offset="100%" stop-color="#1a2448" stop-opacity="0"/>
    </radialGradient>
    <linearGradient id="goldPrimary" x1="0%" y1="0%" x2="100%" y2="100%">
      <stop offset="0%" stop-color="#ffe8a3"/>
      <stop offset="45%" stop-color="#d4a574"/>
      <stop offset="100%" stop-color="#6b4a1f"/>
    </linearGradient>
    <linearGradient id="goldPrimaryV" x1="50%" y1="0%" x2="50%" y2="100%">
      <stop offset="0%" stop-color="#fff2c6"/>
      <stop offset="50%" stop-color="#d4a574"/>
      <stop offset="100%" stop-color="#6b4a1f"/>
    </linearGradient>
    <linearGradient id="goldThin" x1="0%" y1="0%" x2="100%" y2="0%">
      <stop offset="0%" stop-color="#6b4a1f"/>
      <stop offset="50%" stop-color="#d4a574"/>
      <stop offset="100%" stop-color="#6b4a1f"/>
    </linearGradient>
    <radialGradient id="centralAura" cx="50%" cy="50%" r="50%">
      <stop offset="0%" stop-color="#fff2c6" stop-opacity="0.38"/>
      <stop offset="40%" stop-color="#d4a574" stop-opacity="0.2"/>
      <stop offset="75%" stop-color="#6b4a1f" stop-opacity="0.06"/>
      <stop offset="100%" stop-color="#1a2448" stop-opacity="0"/>
    </radialGradient>
    <linearGradient id="bladeFill" x1="50%" y1="0%" x2="50%" y2="100%">
      <stop offset="0%" stop-color="#fff2c6" stop-opacity="0.45"/>
      <stop offset="50%" stop-color="#ffe8a3" stop-opacity="0.28"/>
      <stop offset="100%" stop-color="#d4a574" stop-opacity="0.18"/>
    </linearGradient>
    <radialGradient id="pommelGold" cx="40%" cy="40%" r="70%">
      <stop offset="0%" stop-color="#fff2c6"/>
      <stop offset="50%" stop-color="#d4a574"/>
      <stop offset="100%" stop-color="#6b4a1f"/>
    </radialGradient>
    <path id="inscriptionArc" d="M 76 256 A 180 180 0 0 0 436 256" fill="none"/>
  </defs>

  <g id="background">
    <rect x="0" y="0" width="512" height="512" fill="url(#bgNight)"/>
    <rect x="0" y="0" width="512" height="512" fill="url(#airWash)"/>
    <rect x="0" y="0" width="512" height="512" fill="url(#vignette)"/>
  </g>

  <g id="starfield" fill="#fff2c6">
    <circle cx="68" cy="92" r="1.1" fill-opacity="0.75"/>
    <circle cx="128" cy="54" r="0.9" fill-opacity="0.6"/>
    <circle cx="210" cy="104" r="1.3" fill-opacity="0.85"/>
    <circle cx="430" cy="78" r="1" fill-opacity="0.7"/>
    <circle cx="468" cy="168" r="1.4" fill-opacity="0.9"/>
    <circle cx="52" cy="206" r="1.1" fill-opacity="0.75"/>
    <circle cx="96" cy="394" r="1.2" fill-opacity="0.8"/>
    <circle cx="158" cy="446" r="0.9" fill-opacity="0.6"/>
    <circle cx="402" cy="432" r="1.3" fill-opacity="0.85"/>
    <circle cx="456" cy="376" r="1" fill-opacity="0.7"/>
    <circle cx="340" cy="60" r="0.8" fill-opacity="0.55"/>
    <circle cx="72" cy="330" r="1" fill-opacity="0.7"/>
  </g>

  <g id="sacred-geometry" fill="none" stroke="url(#goldThin)" stroke-opacity="0.85">
    <circle cx="256" cy="256" r="240" stroke-width="0.8"/>
    <circle cx="256" cy="256" r="220" stroke-width="0.6" stroke-opacity="0.55"/>
    <circle cx="256" cy="256" r="200" stroke-width="0.8"/>
    <circle cx="256" cy="256" r="150" stroke-width="0.4" stroke-opacity="0.35" stroke-dasharray="2 4"/>
    <circle cx="256" cy="256" r="178" stroke-width="0.7" stroke-opacity="0.55"/>
    <circle cx="256" cy="256" r="174" stroke-width="0.4" stroke-opacity="0.35"/>

    <g stroke="#d4a574" stroke-width="1.2" stroke-opacity="0.85">
      <line x1="256" y1="16" x2="256" y2="8"/>
      <line x1="376" y1="48" x2="380" y2="40"/>
      <line x1="464" y1="136" x2="472" y2="132"/>
      <line x1="496" y1="256" x2="504" y2="256"/>
      <line x1="464" y1="376" x2="472" y2="380"/>
      <line x1="376" y1="464" x2="380" y2="472"/>
      <line x1="256" y1="496" x2="256" y2="504"/>
      <line x1="136" y1="464" x2="132" y2="472"/>
      <line x1="48" y1="376" x2="40" y2="380"/>
      <line x1="16" y1="256" x2="8" y2="256"/>
      <line x1="48" y1="136" x2="40" y2="132"/>
      <line x1="136" y1="48" x2="132" y2="40"/>
    </g>

    <g fill="#d4a574" fill-opacity="0.85" stroke="none">
      <path d="M 256 22 L 259 36 L 273 39 L 259 42 L 256 56 L 253 42 L 239 39 L 253 36 Z"/>
      <path d="M 490 256 L 476 259 L 473 273 L 470 259 L 456 256 L 470 253 L 473 239 L 476 253 Z"/>
      <path d="M 256 490 L 259 476 L 273 473 L 259 470 L 256 456 L 253 470 L 239 473 L 253 476 Z"/>
      <path d="M 22 256 L 36 259 L 39 273 L 42 259 L 56 256 L 42 253 L 39 239 L 36 253 Z"/>
    </g>

    <g font-family="Georgia, 'Times New Roman', serif" font-size="13" fill="#d4a574" letter-spacing="2" font-style="italic">
      <text>
        <textPath href="#inscriptionArc" startOffset="50%" text-anchor="middle">III  ·  SWORDS  ·  AER  ·  DOLOR</textPath>
      </text>
    </g>
  </g>

  <g font-family="Georgia, 'Times New Roman', serif" font-size="22" fill="#d4a574" font-style="italic" text-anchor="middle">
    <text x="256" y="55">III</text>
  </g>

  <g id="aura">
    <circle cx="256" cy="220" r="135" fill="url(#centralAura)"/>
  </g>

  <!-- THREE: Heart-pierce — two diagonal swords crossing through the central vertical -->
  <g id="decor-swords" stroke-linecap="round" stroke-linejoin="round">
    <!-- Left diagonal sword, rotated -55° pivoting on (256,220) -->
    <g transform="rotate(-55 256 220)">
      <line x1="256" y1="150" x2="256" y2="270" stroke="url(#goldPrimaryV)" stroke-width="6" opacity="0.85"/>
      <line x1="236" y1="270" x2="276" y2="270" stroke="url(#goldPrimary)" stroke-width="5" opacity="0.85"/>
      <line x1="256" y1="272" x2="256" y2="292" stroke="url(#goldPrimaryV)" stroke-width="5" opacity="0.85"/>
      <circle cx="256" cy="296" r="4" fill="url(#pommelGold)" opacity="0.9"/>
    </g>
    <!-- Right diagonal sword, rotated +55° -->
    <g transform="rotate(55 256 220)">
      <line x1="256" y1="150" x2="256" y2="270" stroke="url(#goldPrimaryV)" stroke-width="6" opacity="0.85"/>
      <line x1="236" y1="270" x2="276" y2="270" stroke="url(#goldPrimary)" stroke-width="5" opacity="0.85"/>
      <line x1="256" y1="272" x2="256" y2="292" stroke="url(#goldPrimaryV)" stroke-width="5" opacity="0.85"/>
      <circle cx="256" cy="296" r="4" fill="url(#pommelGold)" opacity="0.9"/>
    </g>
  </g>

  <!-- CENTRAL SWORD (the heart-pierce center) -->
  <g id="central-sword" stroke-linecap="round" stroke-linejoin="round">
    <path d="M 256 140 L 264 260 L 248 260 Z" fill="url(#bladeFill)" stroke="none"/>
    <path d="M 256 140 L 264 260 L 248 260 Z" fill="none" stroke="url(#goldPrimaryV)" stroke-width="9"/>
    <line x1="256" y1="154" x2="256" y2="256" stroke="url(#goldPrimaryV)" stroke-width="1.4" stroke-opacity="0.65"/>
    <path d="M 256 144 L 250 258" fill="none" stroke="#fff2c6" stroke-width="1.2" stroke-opacity="0.55"/>
    <line x1="226" y1="260" x2="286" y2="260" stroke="url(#goldPrimary)" stroke-width="8" stroke-linecap="round"/>
    <line x1="230" y1="258" x2="282" y2="258" stroke="#fff2c6" stroke-width="1.2" stroke-opacity="0.55"/>
    <circle cx="226" cy="260" r="4" fill="url(#pommelGold)" stroke="#6b4a1f" stroke-width="0.7"/>
    <circle cx="286" cy="260" r="4" fill="url(#pommelGold)" stroke="#6b4a1f" stroke-width="0.7"/>
    <line x1="256" y1="264" x2="256" y2="296" stroke="url(#goldPrimaryV)" stroke-width="7" stroke-linecap="round"/>
    <g stroke="#6b4a1f" stroke-width="0.9" stroke-opacity="0.85">
      <line x1="252" y1="272" x2="260" y2="272"/>
      <line x1="252" y1="280" x2="260" y2="280"/>
      <line x1="252" y1="288" x2="260" y2="288"/>
    </g>
    <circle cx="256" cy="304" r="6" fill="url(#pommelGold)" stroke="url(#goldPrimary)" stroke-width="1.2"/>
    <circle cx="254" cy="302" r="1.6" fill="#fff2c6"/>
  </g>

  <!-- Subtle heart/tear behind the pierce — a small sorrowful mark -->
  <g opacity="0.35">
    <path d="M 256 340 Q 240 352 256 366 Q 272 352 256 340 Z" fill="none" stroke="#d4a574" stroke-width="1"/>
  </g>

  <g id="ornament" fill="none" stroke="#d4a574" stroke-opacity="0.5" stroke-width="1.2" stroke-linecap="round">
    <g transform="translate(40,40)">
      <path d="M 0 15 L 30 15 M 15 0 L 15 30"/>
      <path d="M 4 4 Q 15 10 26 4"/>
      <path d="M 4 26 Q 15 20 26 26"/>
      <circle cx="15" cy="15" r="2.5" fill="#d4a574" fill-opacity="0.5" stroke="none"/>
    </g>
    <g transform="translate(442,40)">
      <path d="M 0 15 L 30 15 M 15 0 L 15 30"/>
      <path d="M 4 4 Q 15 10 26 4"/>
      <path d="M 4 26 Q 15 20 26 26"/>
      <circle cx="15" cy="15" r="2.5" fill="#d4a574" fill-opacity="0.5" stroke="none"/>
    </g>
    <g transform="translate(40,442)">
      <path d="M 0 15 L 30 15 M 15 0 L 15 30"/>
      <path d="M 4 4 Q 15 10 26 4"/>
      <path d="M 4 26 Q 15 20 26 26"/>
      <circle cx="15" cy="15" r="2.5" fill="#d4a574" fill-opacity="0.5" stroke="none"/>
    </g>
    <g transform="translate(442,442)">
      <path d="M 0 15 L 30 15 M 15 0 L 15 30"/>
      <path d="M 4 4 Q 15 10 26 4"/>
      <path d="M 4 26 Q 15 20 26 26"/>
      <circle cx="15" cy="15" r="2.5" fill="#d4a574" fill-opacity="0.5" stroke="none"/>
    </g>
  </g>
</svg>
