<svg xmlns="http://www.w3.org/2000/svg" viewBox="0 0 512 512" role="img" aria-labelledby="title desc">
  <title id="title">Five of Cups</title>
  <desc id="desc">Five of Cups — Dolor. Two chalices remain upright above while three lie tipped and spilled below — the grief of what was lost and the quiet endurance of what remains.</desc>

  <defs>
    <radialGradient id="bgNight" cx="50%" cy="50%" r="75%">
      <stop offset="0%" stop-color="#1a0f2e"/>
      <stop offset="55%" stop-color="#0d0719"/>
      <stop offset="100%" stop-color="#05020e"/>
    </radialGradient>
    <radialGradient id="vignette" cx="50%" cy="50%" r="70%">
      <stop offset="0%" stop-color="#000000" stop-opacity="0"/>
      <stop offset="70%" stop-color="#000000" stop-opacity="0"/>
      <stop offset="100%" stop-color="#000000" stop-opacity="0.55"/>
    </radialGradient>
    <radialGradient id="waterWash" cx="50%" cy="50%" r="45%">
      <stop offset="0%" stop-color="#2a5f9a" stop-opacity="0.14"/>
      <stop offset="60%" stop-color="#1f3a3a" stop-opacity="0.06"/>
      <stop offset="100%" stop-color="#1f3a3a" stop-opacity="0"/>
    </radialGradient>
    <linearGradient id="goldPrimary" x1="0%" y1="0%" x2="100%" y2="100%">
      <stop offset="0%" stop-color="#ffe8a3"/>
      <stop offset="45%" stop-color="#d4a574"/>
      <stop offset="100%" stop-color="#6b4a1f"/>
    </linearGradient>
    <linearGradient id="goldPrimaryV" x1="50%" y1="0%" x2="50%" y2="100%">
      <stop offset="0%" stop-color="#fff2c6"/>
      <stop offset="50%" stop-color="#d4a574"/>
      <stop offset="100%" stop-color="#6b4a1f"/>
    </linearGradient>
    <linearGradient id="goldThin" x1="0%" y1="0%" x2="100%" y2="0%">
      <stop offset="0%" stop-color="#6b4a1f"/>
      <stop offset="50%" stop-color="#d4a574"/>
      <stop offset="100%" stop-color="#6b4a1f"/>
    </linearGradient>
    <radialGradient id="centralAura" cx="50%" cy="50%" r="50%">
      <stop offset="0%" stop-color="#fff2c6" stop-opacity="0.35"/>
      <stop offset="40%" stop-color="#d4a574" stop-opacity="0.18"/>
      <stop offset="75%" stop-color="#6b4a1f" stop-opacity="0.05"/>
      <stop offset="100%" stop-color="#1f3a3a" stop-opacity="0"/>
    </radialGradient>
    <radialGradient id="dropletGlow" cx="50%" cy="50%" r="50%">
      <stop offset="0%" stop-color="#fff2c6" stop-opacity="1"/>
      <stop offset="50%" stop-color="#ffe8a3" stop-opacity="0.65"/>
      <stop offset="100%" stop-color="#d4a574" stop-opacity="0"/>
    </radialGradient>
    <path id="inscriptionArc" d="M 76 256 A 180 180 0 0 0 436 256" fill="none"/>

    <symbol id="miniCup" overflow="visible">
      <path d="M -14 -18 C -14 -18, -8 -2, 0 2 C 8 -2, 14 -18, 14 -18" fill="none" stroke="url(#goldPrimaryV)" stroke-width="6" stroke-linecap="round" stroke-linejoin="round"/>
      <path d="M -14 -18 C -6 -14, 6 -14, 14 -18" fill="none" stroke="url(#goldPrimaryV)" stroke-width="6" stroke-linecap="round"/>
      <path d="M 0 2 L 0 16" stroke="url(#goldPrimaryV)" stroke-width="5" stroke-linecap="round"/>
      <ellipse cx="0" cy="19" rx="11" ry="3" fill="none" stroke="url(#goldPrimaryV)" stroke-width="4"/>
    </symbol>
  </defs>

  <g id="background">
    <rect x="0" y="0" width="512" height="512" fill="url(#bgNight)"/>
    <rect x="0" y="0" width="512" height="512" fill="url(#waterWash)"/>
    <rect x="0" y="0" width="512" height="512" fill="url(#vignette)"/>
  </g>

  <g id="starfield" fill="#fff2c6">
    <circle cx="68"  cy="92"  r="1.1" fill-opacity="0.75"/>
    <circle cx="128" cy="54"  r="0.9" fill-opacity="0.6"/>
    <circle cx="210" cy="104" r="1.3" fill-opacity="0.85"/>
    <circle cx="430" cy="78"  r="1"   fill-opacity="0.7"/>
    <circle cx="468" cy="168" r="1.4" fill-opacity="0.9"/>
    <circle cx="52"  cy="206" r="1.1" fill-opacity="0.75"/>
    <circle cx="96"  cy="394" r="1.2" fill-opacity="0.8"/>
    <circle cx="158" cy="446" r="0.9" fill-opacity="0.6"/>
    <circle cx="402" cy="432" r="1.3" fill-opacity="0.85"/>
    <circle cx="456" cy="376" r="1"   fill-opacity="0.7"/>
    <circle cx="340" cy="60"  r="0.8" fill-opacity="0.55"/>
    <circle cx="72"  cy="330" r="1"   fill-opacity="0.7"/>
  </g>

  <g id="sacred-geometry" fill="none" stroke="url(#goldThin)" stroke-opacity="0.85">
    <circle cx="256" cy="256" r="240" stroke-width="0.8"/>
    <circle cx="256" cy="256" r="220" stroke-width="0.6" stroke-opacity="0.55"/>
    <circle cx="256" cy="256" r="200" stroke-width="0.8"/>
    <circle cx="256" cy="256" r="150" stroke-width="0.4" stroke-opacity="0.35" stroke-dasharray="2 4"/>
    <g stroke="#d4a574" stroke-width="1.2" stroke-opacity="0.85">
      <line x1="256" y1="16"  x2="256" y2="8"/>
      <line x1="376" y1="48"  x2="380" y2="40"/>
      <line x1="464" y1="136" x2="472" y2="132"/>
      <line x1="496" y1="256" x2="504" y2="256"/>
      <line x1="464" y1="376" x2="472" y2="380"/>
      <line x1="376" y1="464" x2="380" y2="472"/>
      <line x1="256" y1="496" x2="256" y2="504"/>
      <line x1="136" y1="464" x2="132" y2="472"/>
      <line x1="48"  y1="376" x2="40"  y2="380"/>
      <line x1="16"  y1="256" x2="8"   y2="256"/>
      <line x1="48"  y1="136" x2="40"  y2="132"/>
      <line x1="136" y1="48"  x2="132" y2="40"/>
    </g>
    <g stroke="#d4a574" stroke-width="1" stroke-opacity="0.7">
      <line x1="256" y1="56"  x2="256" y2="64"/>
      <line x1="356" y1="83"  x2="354" y2="90"/>
      <line x1="429" y1="156" x2="422" y2="158"/>
      <line x1="456" y1="256" x2="448" y2="256"/>
      <line x1="429" y1="356" x2="422" y2="354"/>
      <line x1="356" y1="429" x2="354" y2="422"/>
      <line x1="256" y1="456" x2="256" y2="448"/>
      <line x1="156" y1="429" x2="158" y2="422"/>
      <line x1="83"  y1="356" x2="90"  y2="354"/>
      <line x1="56"  y1="256" x2="64"  y2="256"/>
      <line x1="83"  y1="156" x2="90"  y2="158"/>
      <line x1="156" y1="83"  x2="158" y2="90"/>
    </g>
    <g fill="#d4a574" fill-opacity="0.85" stroke="none">
      <path d="M 256 22 L 259 36 L 273 39 L 259 42 L 256 56 L 253 42 L 239 39 L 253 36 Z"/>
      <path d="M 490 256 L 476 259 L 473 273 L 470 259 L 456 256 L 470 253 L 473 239 L 476 253 Z"/>
      <path d="M 256 490 L 259 476 L 273 473 L 259 470 L 256 456 L 253 470 L 239 473 L 253 476 Z"/>
      <path d="M 22 256 L 36 259 L 39 273 L 42 259 L 56 256 L 42 253 L 39 239 L 36 253 Z"/>
    </g>
    <g font-family="Georgia, 'Times New Roman', serif" font-size="14" fill="#d4a574" letter-spacing="2" font-style="italic">
      <text>
        <textPath href="#inscriptionArc" startOffset="50%" text-anchor="middle">V  ·  CUPS  ·  AQUA  ·  DOLOR</textPath>
      </text>
    </g>
  </g>

  <g font-family="Georgia, 'Times New Roman', serif" font-size="14" fill="#d4a574" font-style="italic" letter-spacing="2" text-anchor="middle">
    <text x="256" y="55">V</text>
  </g>

  <g id="aura">
    <circle cx="256" cy="220" r="120" fill="url(#centralAura)"/>
  </g>

  <g id="glyph" fill="none" stroke-linecap="round" stroke-linejoin="round" transform="translate(256 220) scale(0.6) translate(-256 -220)">
    <path d="M 178 172
             C 178 172, 192 210, 204 236
             C 216 260, 232 276, 256 280
             C 280 276, 296 260, 308 236
             C 320 210, 334 172, 334 172"
          stroke="url(#goldPrimaryV)" stroke-width="14" fill="url(#centralAura)" fill-opacity="0.3"/>
    <path d="M 178 172 C 204 184, 236 188, 256 184 C 276 180, 308 180, 334 172"
          stroke="url(#goldPrimaryV)" stroke-width="14"/>
    <path d="M 178 172 C 204 160, 308 160, 334 172"
          stroke="url(#goldPrimaryV)" stroke-width="6" stroke-opacity="0.65"/>
    <path d="M 238 172 C 244 162, 250 158, 256 158 C 262 158, 268 162, 274 172"
          stroke="url(#goldPrimaryV)" stroke-width="8" stroke-linecap="round"/>
    <circle cx="256" cy="152" r="4" fill="#fff2c6"/>
    <path d="M 256 280 L 256 348" stroke="url(#goldPrimaryV)" stroke-width="10"/>
    <circle cx="256" cy="314" r="8" fill="none" stroke="url(#goldPrimaryV)" stroke-width="4"/>
    <circle cx="256" cy="314" r="2.5" fill="#fff2c6"/>
    <ellipse cx="256" cy="356" rx="62" ry="10" fill="none" stroke="url(#goldPrimaryV)" stroke-width="10"/>
    <path d="M 238 348 Q 256 344 274 348" stroke="url(#goldPrimaryV)" stroke-width="8"/>
    <ellipse cx="256" cy="366" rx="54" ry="5" fill="none" stroke="url(#goldPrimary)" stroke-width="2.5" stroke-opacity="0.7"/>
    <circle cx="178" cy="172" r="2.5" fill="#fff2c6"/>
    <circle cx="334" cy="172" r="2.5" fill="#fff2c6"/>
  </g>

  <!-- FIVE MINI-CHALICES — 2 upright above + 3 spilled below -->
  <g id="pips">
    <!-- Upright pair above central -->
    <use href="#miniCup" transform="translate(170,140)"/>
    <use href="#miniCup" transform="translate(342,140)"/>
    <!-- Three tipped/fallen below -->
    <use href="#miniCup" transform="translate(128,395) rotate(-30)"/>
    <use href="#miniCup" transform="translate(256,408) rotate(90)"/>
    <use href="#miniCup" transform="translate(384,395) rotate(30)"/>
    <!-- Spill droplets from the fallen cups -->
    <g opacity="0.8">
      <circle cx="140" cy="428" r="2.5" fill="url(#dropletGlow)"/>
      <circle cx="152" cy="440" r="1.8" fill="url(#dropletGlow)"/>
      <circle cx="236" cy="438" r="2.2" fill="url(#dropletGlow)"/>
      <circle cx="276" cy="438" r="2.2" fill="url(#dropletGlow)"/>
      <circle cx="370" cy="428" r="2.5" fill="url(#dropletGlow)"/>
      <circle cx="382" cy="442" r="1.8" fill="url(#dropletGlow)"/>
    </g>
  </g>

  <g id="ornament" fill="none" stroke="#d4a574" stroke-opacity="0.5" stroke-width="1.2" stroke-linecap="round">
    <g transform="translate(40,40)">
      <path d="M 0 15 L 30 15 M 15 0 L 15 30"/>
      <path d="M 4 4 Q 15 10 26 4"/>
      <path d="M 4 26 Q 15 20 26 26"/>
      <circle cx="15" cy="15" r="2.5" fill="#d4a574" fill-opacity="0.5" stroke="none"/>
    </g>
    <g transform="translate(442,40)">
      <path d="M 0 15 L 30 15 M 15 0 L 15 30"/>
      <path d="M 4 4 Q 15 10 26 4"/>
      <path d="M 4 26 Q 15 20 26 26"/>
      <circle cx="15" cy="15" r="2.5" fill="#d4a574" fill-opacity="0.5" stroke="none"/>
    </g>
    <g transform="translate(40,442)">
      <path d="M 0 15 L 30 15 M 15 0 L 15 30"/>
      <path d="M 4 4 Q 15 10 26 4"/>
      <path d="M 4 26 Q 15 20 26 26"/>
      <circle cx="15" cy="15" r="2.5" fill="#d4a574" fill-opacity="0.5" stroke="none"/>
    </g>
    <g transform="translate(442,442)">
      <path d="M 0 15 L 30 15 M 15 0 L 15 30"/>
      <path d="M 4 4 Q 15 10 26 4"/>
      <path d="M 4 26 Q 15 20 26 26"/>
      <circle cx="15" cy="15" r="2.5" fill="#d4a574" fill-opacity="0.5" stroke="none"/>
    </g>
  </g>
</svg>
