<svg xmlns="http://www.w3.org/2000/svg" viewBox="0 0 512 512" role="img" aria-labelledby="title desc">
  <title id="title">Ten of Swords pip</title>
  <desc id="desc">Ten of Swords — Ruina, ruin. Ten fallen swords slumped inward. Air element.</desc>

  <defs>
    <radialGradient id="bgNight" cx="50%" cy="50%" r="75%">
      <stop offset="0%" stop-color="#1a0f2e"/>
      <stop offset="55%" stop-color="#0d0719"/>
      <stop offset="100%" stop-color="#05020e"/>
    </radialGradient>
    <radialGradient id="vignette" cx="50%" cy="50%" r="70%">
      <stop offset="0%" stop-color="#000000" stop-opacity="0"/>
      <stop offset="70%" stop-color="#000000" stop-opacity="0"/>
      <stop offset="100%" stop-color="#000000" stop-opacity="0.55"/>
    </radialGradient>
    <radialGradient id="airWash" cx="50%" cy="50%" r="45%">
      <stop offset="0%" stop-color="#4466aa" stop-opacity="0.16"/>
      <stop offset="60%" stop-color="#2c4a7a" stop-opacity="0.07"/>
      <stop offset="100%" stop-color="#1a2448" stop-opacity="0"/>
    </radialGradient>
    <linearGradient id="goldPrimary" x1="0%" y1="0%" x2="100%" y2="100%">
      <stop offset="0%" stop-color="#ffe8a3"/>
      <stop offset="45%" stop-color="#d4a574"/>
      <stop offset="100%" stop-color="#6b4a1f"/>
    </linearGradient>
    <linearGradient id="goldPrimaryV" x1="50%" y1="0%" x2="50%" y2="100%">
      <stop offset="0%" stop-color="#fff2c6"/>
      <stop offset="50%" stop-color="#d4a574"/>
      <stop offset="100%" stop-color="#6b4a1f"/>
    </linearGradient>
    <linearGradient id="goldThin" x1="0%" y1="0%" x2="100%" y2="0%">
      <stop offset="0%" stop-color="#6b4a1f"/>
      <stop offset="50%" stop-color="#d4a574"/>
      <stop offset="100%" stop-color="#6b4a1f"/>
    </linearGradient>
    <radialGradient id="centralAura" cx="50%" cy="50%" r="50%">
      <stop offset="0%" stop-color="#fff2c6" stop-opacity="0.38"/>
      <stop offset="40%" stop-color="#d4a574" stop-opacity="0.2"/>
      <stop offset="75%" stop-color="#6b4a1f" stop-opacity="0.06"/>
      <stop offset="100%" stop-color="#1a2448" stop-opacity="0"/>
    </radialGradient>
    <linearGradient id="bladeFill" x1="50%" y1="0%" x2="50%" y2="100%">
      <stop offset="0%" stop-color="#fff2c6" stop-opacity="0.45"/>
      <stop offset="50%" stop-color="#ffe8a3" stop-opacity="0.28"/>
      <stop offset="100%" stop-color="#d4a574" stop-opacity="0.18"/>
    </linearGradient>
    <radialGradient id="pommelGold" cx="40%" cy="40%" r="70%">
      <stop offset="0%" stop-color="#fff2c6"/>
      <stop offset="50%" stop-color="#d4a574"/>
      <stop offset="100%" stop-color="#6b4a1f"/>
    </radialGradient>
    <path id="inscriptionArc" d="M 76 256 A 180 180 0 0 0 436 256" fill="none"/>

    <!-- Fallen sword: pommel at (0,0), blade extending +y to (0,+40). Used rotated for slumped pile. -->
    <symbol id="fallenSword" overflow="visible">
      <circle cx="0" cy="0" r="2.4" fill="url(#pommelGold)"/>
      <line x1="0" y1="2" x2="0" y2="10" stroke="url(#goldPrimaryV)" stroke-width="4" stroke-linecap="round"/>
      <line x1="-7" y1="12" x2="7" y2="12" stroke="url(#goldPrimary)" stroke-width="4" stroke-linecap="round"/>
      <line x1="0" y1="12" x2="0" y2="40" stroke="url(#goldPrimaryV)" stroke-width="5" stroke-linecap="round"/>
    </symbol>
  </defs>

  <g id="background">
    <rect x="0" y="0" width="512" height="512" fill="url(#bgNight)"/>
    <rect x="0" y="0" width="512" height="512" fill="url(#airWash)"/>
    <rect x="0" y="0" width="512" height="512" fill="url(#vignette)"/>
  </g>

  <g id="starfield" fill="#fff2c6">
    <circle cx="68" cy="92" r="1.1" fill-opacity="0.75"/>
    <circle cx="128" cy="54" r="0.9" fill-opacity="0.6"/>
    <circle cx="210" cy="104" r="1.3" fill-opacity="0.85"/>
    <circle cx="430" cy="78" r="1" fill-opacity="0.7"/>
    <circle cx="468" cy="168" r="1.4" fill-opacity="0.9"/>
    <circle cx="52" cy="206" r="1.1" fill-opacity="0.75"/>
    <circle cx="96" cy="394" r="1.2" fill-opacity="0.8"/>
    <circle cx="158" cy="446" r="0.9" fill-opacity="0.6"/>
    <circle cx="402" cy="432" r="1.3" fill-opacity="0.85"/>
    <circle cx="456" cy="376" r="1" fill-opacity="0.7"/>
    <circle cx="340" cy="60" r="0.8" fill-opacity="0.55"/>
    <circle cx="72" cy="330" r="1" fill-opacity="0.7"/>
  </g>

  <g id="sacred-geometry" fill="none" stroke="url(#goldThin)" stroke-opacity="0.85">
    <circle cx="256" cy="256" r="240" stroke-width="0.8"/>
    <circle cx="256" cy="256" r="220" stroke-width="0.6" stroke-opacity="0.55"/>
    <circle cx="256" cy="256" r="200" stroke-width="0.8"/>
    <circle cx="256" cy="256" r="150" stroke-width="0.4" stroke-opacity="0.35" stroke-dasharray="2 4"/>
    <circle cx="256" cy="256" r="178" stroke-width="0.7" stroke-opacity="0.55"/>
    <circle cx="256" cy="256" r="174" stroke-width="0.4" stroke-opacity="0.35"/>

    <g stroke="#d4a574" stroke-width="1.2" stroke-opacity="0.85">
      <line x1="256" y1="16" x2="256" y2="8"/>
      <line x1="376" y1="48" x2="380" y2="40"/>
      <line x1="464" y1="136" x2="472" y2="132"/>
      <line x1="496" y1="256" x2="504" y2="256"/>
      <line x1="464" y1="376" x2="472" y2="380"/>
      <line x1="376" y1="464" x2="380" y2="472"/>
      <line x1="256" y1="496" x2="256" y2="504"/>
      <line x1="136" y1="464" x2="132" y2="472"/>
      <line x1="48" y1="376" x2="40" y2="380"/>
      <line x1="16" y1="256" x2="8" y2="256"/>
      <line x1="48" y1="136" x2="40" y2="132"/>
      <line x1="136" y1="48" x2="132" y2="40"/>
    </g>

    <g fill="#d4a574" fill-opacity="0.85" stroke="none">
      <path d="M 256 22 L 259 36 L 273 39 L 259 42 L 256 56 L 253 42 L 239 39 L 253 36 Z"/>
      <path d="M 490 256 L 476 259 L 473 273 L 470 259 L 456 256 L 470 253 L 473 239 L 476 253 Z"/>
      <path d="M 256 490 L 259 476 L 273 473 L 259 470 L 256 456 L 253 470 L 239 473 L 253 476 Z"/>
      <path d="M 22 256 L 36 259 L 39 273 L 42 259 L 56 256 L 42 253 L 39 239 L 36 253 Z"/>
    </g>

    <g font-family="Georgia, 'Times New Roman', serif" font-size="13" fill="#d4a574" letter-spacing="2" font-style="italic">
      <text>
        <textPath href="#inscriptionArc" startOffset="50%" text-anchor="middle">X  ·  SWORDS  ·  AER  ·  RUINA</textPath>
      </text>
    </g>
  </g>

  <g font-family="Georgia, 'Times New Roman', serif" font-size="22" fill="#d4a574" font-style="italic" text-anchor="middle">
    <text x="256" y="55">X</text>
  </g>

  <g id="aura">
    <circle cx="256" cy="230" r="140" fill="url(#centralAura)"/>
  </g>

  <!-- CENTRAL SWORD — fallen, laid diagonally across the pile as the final blow. Rotated 78° around (256,230). -->
  <g id="central-sword" stroke-linecap="round" stroke-linejoin="round" transform="rotate(78 256 230)" opacity="0.92">
    <path d="M 256 150 L 264 270 L 248 270 Z" fill="url(#bladeFill)" stroke="none"/>
    <path d="M 256 150 L 264 270 L 248 270 Z" fill="none" stroke="url(#goldPrimaryV)" stroke-width="9"/>
    <line x1="256" y1="164" x2="256" y2="266" stroke="url(#goldPrimaryV)" stroke-width="1.4" stroke-opacity="0.65"/>
    <path d="M 256 154 L 250 268" fill="none" stroke="#fff2c6" stroke-width="1.2" stroke-opacity="0.55"/>
    <line x1="226" y1="270" x2="286" y2="270" stroke="url(#goldPrimary)" stroke-width="8"/>
    <line x1="230" y1="268" x2="282" y2="268" stroke="#fff2c6" stroke-width="1.2" stroke-opacity="0.55"/>
    <circle cx="226" cy="270" r="4" fill="url(#pommelGold)" stroke="#6b4a1f" stroke-width="0.7"/>
    <circle cx="286" cy="270" r="4" fill="url(#pommelGold)" stroke="#6b4a1f" stroke-width="0.7"/>
    <line x1="256" y1="274" x2="256" y2="306" stroke="url(#goldPrimaryV)" stroke-width="7"/>
    <g stroke="#6b4a1f" stroke-width="0.9" stroke-opacity="0.85">
      <line x1="252" y1="282" x2="260" y2="282"/>
      <line x1="252" y1="290" x2="260" y2="290"/>
      <line x1="252" y1="298" x2="260" y2="298"/>
    </g>
    <circle cx="256" cy="314" r="6" fill="url(#pommelGold)" stroke="url(#goldPrimary)" stroke-width="1.2"/>
    <circle cx="254" cy="312" r="1.6" fill="#fff2c6"/>
  </g>

  <!-- TEN fallen swords slumped into a pile — all pointing inward/down toward the center -->
  <g id="slumped-pile" opacity="0.85">
    <!-- horizon / ground line -->
    <path d="M 118 360 Q 256 376 394 360" fill="none" stroke="#d4a574" stroke-opacity="0.25" stroke-width="0.8" stroke-dasharray="2 4"/>

    <!-- back row — further, slightly faded -->
    <g opacity="0.7">
      <g transform="translate(168 200) rotate(45)"><use href="#fallenSword" x="0" y="0"/></g>
      <g transform="translate(222 188) rotate(30)"><use href="#fallenSword" x="0" y="0"/></g>
      <g transform="translate(288 188) rotate(-30)"><use href="#fallenSword" x="0" y="0"/></g>
      <g transform="translate(344 200) rotate(-45)"><use href="#fallenSword" x="0" y="0"/></g>
    </g>

    <!-- mid row -->
    <g opacity="0.85">
      <g transform="translate(148 260) rotate(60)"><use href="#fallenSword" x="0" y="0"/></g>
      <g transform="translate(200 280) rotate(22)"><use href="#fallenSword" x="0" y="0"/></g>
      <g transform="translate(312 280) rotate(-22)"><use href="#fallenSword" x="0" y="0"/></g>
      <g transform="translate(364 260) rotate(-60)"><use href="#fallenSword" x="0" y="0"/></g>
    </g>

    <!-- front row — closer -->
    <g opacity="0.92">
      <g transform="translate(176 330) rotate(75)"><use href="#fallenSword" x="0" y="0"/></g>
      <g transform="translate(336 330) rotate(-75)"><use href="#fallenSword" x="0" y="0"/></g>
    </g>
  </g>

  <g id="ornament" fill="none" stroke="#d4a574" stroke-opacity="0.5" stroke-width="1.2" stroke-linecap="round">
    <g transform="translate(40,40)">
      <path d="M 0 15 L 30 15 M 15 0 L 15 30"/>
      <path d="M 4 4 Q 15 10 26 4"/>
      <path d="M 4 26 Q 15 20 26 26"/>
      <circle cx="15" cy="15" r="2.5" fill="#d4a574" fill-opacity="0.5" stroke="none"/>
    </g>
    <g transform="translate(442,40)">
      <path d="M 0 15 L 30 15 M 15 0 L 15 30"/>
      <path d="M 4 4 Q 15 10 26 4"/>
      <path d="M 4 26 Q 15 20 26 26"/>
      <circle cx="15" cy="15" r="2.5" fill="#d4a574" fill-opacity="0.5" stroke="none"/>
    </g>
    <g transform="translate(40,442)">
      <path d="M 0 15 L 30 15 M 15 0 L 15 30"/>
      <path d="M 4 4 Q 15 10 26 4"/>
      <path d="M 4 26 Q 15 20 26 26"/>
      <circle cx="15" cy="15" r="2.5" fill="#d4a574" fill-opacity="0.5" stroke="none"/>
    </g>
    <g transform="translate(442,442)">
      <path d="M 0 15 L 30 15 M 15 0 L 15 30"/>
      <path d="M 4 4 Q 15 10 26 4"/>
      <path d="M 4 26 Q 15 20 26 26"/>
      <circle cx="15" cy="15" r="2.5" fill="#d4a574" fill-opacity="0.5" stroke="none"/>
    </g>
  </g>
</svg>
