<svg xmlns="http://www.w3.org/2000/svg" width="700" height="1200" viewBox="0 0 700 1200"><defs><clipPath id="inside"><rect x="62" y="62" width="576" height="1076" rx="22"/></clipPath></defs><rect width="700" height="1200" rx="24" fill="#0b2034"/><rect x="25" y="25" width="650" height="1150" rx="24" fill="none" stroke="#b6a071" stroke-width="0.9"/><rect x="34" y="34" width="632" height="1132" rx="20" fill="none" stroke="#7790a0" stroke-width="0.8"/><rect x="53" y="53" width="594" height="1094" rx="30" fill="none" stroke="#b6a071" stroke-width="0.7"/><g clip-path="url(#inside)"><g transform="translate(98 93) rotate(0) scale(0.2) translate(-50 -115)" fill="#304c61"><path d="M43 218 C55 184 41 154 47 119 C51 94 61 70 53 43 L54 42 C64 69 54 96 51 120 C45 153 58 187 44 218 Z"/><path d="M51 163 C62 148 77 139 93 136 C83 150 69 160 51 163 Z"/><path d="M47 123 C32 120 17 105 8 88 C25 94 43 109 47 123 Z"/><path d="M58 81 C64 66 77 55 91 49 C84 64 72 75 58 81 Z"/><path d="M63 11 C70 13 67 27 62 34 C56 43 51 44 49 38 C46 30 56 11 63 11 Z"/></g><g transform="translate(199 93) rotate(180) scale(0.2) translate(-50 -115)" fill="#304c61"><path d="M43 218 C55 184 41 154 47 119 C51 94 61 70 53 43 L54 42 C64 69 54 96 51 120 C45 153 58 187 44 218 Z"/><path d="M51 163 C62 148 77 139 93 136 C83 150 69 160 51 163 Z"/><path d="M47 123 C32 120 17 105 8 88 C25 94 43 109 47 123 Z"/><path d="M58 81 C64 66 77 55 91 49 C84 64 72 75 58 81 Z"/><path d="M63 11 C70 13 67 27 62 34 C56 43 51 44 49 38 C46 30 56 11 63 11 Z"/></g><g transform="translate(300 93) rotate(0) scale(0.2) translate(-50 -115)" fill="#304c61"><path d="M43 218 C55 184 41 154 47 119 C51 94 61 70 53 43 L54 42 C64 69 54 96 51 120 C45 153 58 187 44 218 Z"/><path d="M51 163 C62 148 77 139 93 136 C83 150 69 160 51 163 Z"/><path d="M47 123 C32 120 17 105 8 88 C25 94 43 109 47 123 Z"/><path d="M58 81 C64 66 77 55 91 49 C84 64 72 75 58 81 Z"/><path d="M63 11 C70 13 67 27 62 34 C56 43 51 44 49 38 C46 30 56 11 63 11 Z"/></g><g transform="translate(401 93) rotate(180) scale(0.2) translate(-50 -115)" fill="#304c61"><path d="M43 218 C55 184 41 154 47 119 C51 94 61 70 53 43 L54 42 C64 69 54 96 51 120 C45 153 58 187 44 218 Z"/><path d="M51 163 C62 148 77 139 93 136 C83 150 69 160 51 163 Z"/><path d="M47 123 C32 120 17 105 8 88 C25 94 43 109 47 123 Z"/><path d="M58 81 C64 66 77 55 91 49 C84 64 72 75 58 81 Z"/><path d="M63 11 C70 13 67 27 62 34 C56 43 51 44 49 38 C46 30 56 11 63 11 Z"/></g><g transform="translate(502 93) rotate(0) scale(0.2) translate(-50 -115)" fill="#304c61"><path d="M43 218 C55 184 41 154 47 119 C51 94 61 70 53 43 L54 42 C64 69 54 96 51 120 C45 153 58 187 44 218 Z"/><path d="M51 163 C62 148 77 139 93 136 C83 150 69 160 51 163 Z"/><path d="M47 123 C32 120 17 105 8 88 C25 94 43 109 47 123 Z"/><path d="M58 81 C64 66 77 55 91 49 C84 64 72 75 58 81 Z"/><path d="M63 11 C70 13 67 27 62 34 C56 43 51 44 49 38 C46 30 56 11 63 11 Z"/></g><g transform="translate(603 93) rotate(180) scale(0.2) translate(-50 -115)" fill="#304c61"><path d="M43 218 C55 184 41 154 47 119 C51 94 61 70 53 43 L54 42 C64 69 54 96 51 120 C45 153 58 187 44 218 Z"/><path d="M51 163 C62 148 77 139 93 136 C83 150 69 160 51 163 Z"/><path d="M47 123 C32 120 17 105 8 88 C25 94 43 109 47 123 Z"/><path d="M58 81 C64 66 77 55 91 49 C84 64 72 75 58 81 Z"/><path d="M63 11 C70 13 67 27 62 34 C56 43 51 44 49 38 C46 30 56 11 63 11 Z"/></g><g transform="translate(148 185) rotate(180) scale(0.2) translate(-50 -115)" fill="#304c61"><path d="M43 218 C55 184 41 154 47 119 C51 94 61 70 53 43 L54 42 C64 69 54 96 51 120 C45 153 58 187 44 218 Z"/><path d="M51 163 C62 148 77 139 93 136 C83 150 69 160 51 163 Z"/><path d="M47 123 C32 120 17 105 8 88 C25 94 43 109 47 123 Z"/><path d="M58 81 C64 66 77 55 91 49 C84 64 72 75 58 81 Z"/><path d="M63 11 C70 13 67 27 62 34 C56 43 51 44 49 38 C46 30 56 11 63 11 Z"/></g><g transform="translate(249 185) rotate(0) scale(0.2) translate(-50 -115)" fill="#304c61"><path d="M43 218 C55 184 41 154 47 119 C51 94 61 70 53 43 L54 42 C64 69 54 96 51 120 C45 153 58 187 44 218 Z"/><path d="M51 163 C62 148 77 139 93 136 C83 150 69 160 51 163 Z"/><path d="M47 123 C32 120 17 105 8 88 C25 94 43 109 47 123 Z"/><path d="M58 81 C64 66 77 55 91 49 C84 64 72 75 58 81 Z"/><path d="M63 11 C70 13 67 27 62 34 C56 43 51 44 49 38 C46 30 56 11 63 11 Z"/></g><g transform="translate(350 185) rotate(180) scale(0.2) translate(-50 -115)" fill="#304c61"><path d="M43 218 C55 184 41 154 47 119 C51 94 61 70 53 43 L54 42 C64 69 54 96 51 120 C45 153 58 187 44 218 Z"/><path d="M51 163 C62 148 77 139 93 136 C83 150 69 160 51 163 Z"/><path d="M47 123 C32 120 17 105 8 88 C25 94 43 109 47 123 Z"/><path d="M58 81 C64 66 77 55 91 49 C84 64 72 75 58 81 Z"/><path d="M63 11 C70 13 67 27 62 34 C56 43 51 44 49 38 C46 30 56 11 63 11 Z"/></g><g transform="translate(451 185) rotate(0) scale(0.2) translate(-50 -115)" fill="#304c61"><path d="M43 218 C55 184 41 154 47 119 C51 94 61 70 53 43 L54 42 C64 69 54 96 51 120 C45 153 58 187 44 218 Z"/><path d="M51 163 C62 148 77 139 93 136 C83 150 69 160 51 163 Z"/><path d="M47 123 C32 120 17 105 8 88 C25 94 43 109 47 123 Z"/><path d="M58 81 C64 66 77 55 91 49 C84 64 72 75 58 81 Z"/><path d="M63 11 C70 13 67 27 62 34 C56 43 51 44 49 38 C46 30 56 11 63 11 Z"/></g><g transform="translate(552 185) rotate(180) scale(0.2) translate(-50 -115)" fill="#304c61"><path d="M43 218 C55 184 41 154 47 119 C51 94 61 70 53 43 L54 42 C64 69 54 96 51 120 C45 153 58 187 44 218 Z"/><path d="M51 163 C62 148 77 139 93 136 C83 150 69 160 51 163 Z"/><path d="M47 123 C32 120 17 105 8 88 C25 94 43 109 47 123 Z"/><path d="M58 81 C64 66 77 55 91 49 C84 64 72 75 58 81 Z"/><path d="M63 11 C70 13 67 27 62 34 C56 43 51 44 49 38 C46 30 56 11 63 11 Z"/></g><g transform="translate(98 277) rotate(0) scale(0.2) translate(-50 -115)" fill="#304c61"><path d="M43 218 C55 184 41 154 47 119 C51 94 61 70 53 43 L54 42 C64 69 54 96 51 120 C45 153 58 187 44 218 Z"/><path d="M51 163 C62 148 77 139 93 136 C83 150 69 160 51 163 Z"/><path d="M47 123 C32 120 17 105 8 88 C25 94 43 109 47 123 Z"/><path d="M58 81 C64 66 77 55 91 49 C84 64 72 75 58 81 Z"/><path d="M63 11 C70 13 67 27 62 34 C56 43 51 44 49 38 C46 30 56 11 63 11 Z"/></g><g transform="translate(199 277) rotate(180) scale(0.2) translate(-50 -115)" fill="#304c61"><path d="M43 218 C55 184 41 154 47 119 C51 94 61 70 53 43 L54 42 C64 69 54 96 51 120 C45 153 58 187 44 218 Z"/><path d="M51 163 C62 148 77 139 93 136 C83 150 69 160 51 163 Z"/><path d="M47 123 C32 120 17 105 8 88 C25 94 43 109 47 123 Z"/><path d="M58 81 C64 66 77 55 91 49 C84 64 72 75 58 81 Z"/><path d="M63 11 C70 13 67 27 62 34 C56 43 51 44 49 38 C46 30 56 11 63 11 Z"/></g><g transform="translate(300 277) rotate(0) scale(0.2) translate(-50 -115)" fill="#304c61"><path d="M43 218 C55 184 41 154 47 119 C51 94 61 70 53 43 L54 42 C64 69 54 96 51 120 C45 153 58 187 44 218 Z"/><path d="M51 163 C62 148 77 139 93 136 C83 150 69 160 51 163 Z"/><path d="M47 123 C32 120 17 105 8 88 C25 94 43 109 47 123 Z"/><path d="M58 81 C64 66 77 55 91 49 C84 64 72 75 58 81 Z"/><path d="M63 11 C70 13 67 27 62 34 C56 43 51 44 49 38 C46 30 56 11 63 11 Z"/></g><g transform="translate(401 277) rotate(180) scale(0.2) translate(-50 -115)" fill="#304c61"><path d="M43 218 C55 184 41 154 47 119 C51 94 61 70 53 43 L54 42 C64 69 54 96 51 120 C45 153 58 187 44 218 Z"/><path d="M51 163 C62 148 77 139 93 136 C83 150 69 160 51 163 Z"/><path d="M47 123 C32 120 17 105 8 88 C25 94 43 109 47 123 Z"/><path d="M58 81 C64 66 77 55 91 49 C84 64 72 75 58 81 Z"/><path d="M63 11 C70 13 67 27 62 34 C56 43 51 44 49 38 C46 30 56 11 63 11 Z"/></g><g transform="translate(502 277) rotate(0) scale(0.2) translate(-50 -115)" fill="#304c61"><path d="M43 218 C55 184 41 154 47 119 C51 94 61 70 53 43 L54 42 C64 69 54 96 51 120 C45 153 58 187 44 218 Z"/><path d="M51 163 C62 148 77 139 93 136 C83 150 69 160 51 163 Z"/><path d="M47 123 C32 120 17 105 8 88 C25 94 43 109 47 123 Z"/><path d="M58 81 C64 66 77 55 91 49 C84 64 72 75 58 81 Z"/><path d="M63 11 C70 13 67 27 62 34 C56 43 51 44 49 38 C46 30 56 11 63 11 Z"/></g><g transform="translate(603 277) rotate(180) scale(0.2) translate(-50 -115)" fill="#304c61"><path d="M43 218 C55 184 41 154 47 119 C51 94 61 70 53 43 L54 42 C64 69 54 96 51 120 C45 153 58 187 44 218 Z"/><path d="M51 163 C62 148 77 139 93 136 C83 150 69 160 51 163 Z"/><path d="M47 123 C32 120 17 105 8 88 C25 94 43 109 47 123 Z"/><path d="M58 81 C64 66 77 55 91 49 C84 64 72 75 58 81 Z"/><path d="M63 11 C70 13 67 27 62 34 C56 43 51 44 49 38 C46 30 56 11 63 11 Z"/></g><g transform="translate(148 369) rotate(180) scale(0.2) translate(-50 -115)" fill="#304c61"><path d="M43 218 C55 184 41 154 47 119 C51 94 61 70 53 43 L54 42 C64 69 54 96 51 120 C45 153 58 187 44 218 Z"/><path d="M51 163 C62 148 77 139 93 136 C83 150 69 160 51 163 Z"/><path d="M47 123 C32 120 17 105 8 88 C25 94 43 109 47 123 Z"/><path d="M58 81 C64 66 77 55 91 49 C84 64 72 75 58 81 Z"/><path d="M63 11 C70 13 67 27 62 34 C56 43 51 44 49 38 C46 30 56 11 63 11 Z"/></g><g transform="translate(249 369) rotate(0) scale(0.2) translate(-50 -115)" fill="#304c61"><path d="M43 218 C55 184 41 154 47 119 C51 94 61 70 53 43 L54 42 C64 69 54 96 51 120 C45 153 58 187 44 218 Z"/><path d="M51 163 C62 148 77 139 93 136 C83 150 69 160 51 163 Z"/><path d="M47 123 C32 120 17 105 8 88 C25 94 43 109 47 123 Z"/><path d="M58 81 C64 66 77 55 91 49 C84 64 72 75 58 81 Z"/><path d="M63 11 C70 13 67 27 62 34 C56 43 51 44 49 38 C46 30 56 11 63 11 Z"/></g><g transform="translate(350 369) rotate(180) scale(0.2) translate(-50 -115)" fill="#304c61"><path d="M43 218 C55 184 41 154 47 119 C51 94 61 70 53 43 L54 42 C64 69 54 96 51 120 C45 153 58 187 44 218 Z"/><path d="M51 163 C62 148 77 139 93 136 C83 150 69 160 51 163 Z"/><path d="M47 123 C32 120 17 105 8 88 C25 94 43 109 47 123 Z"/><path d="M58 81 C64 66 77 55 91 49 C84 64 72 75 58 81 Z"/><path d="M63 11 C70 13 67 27 62 34 C56 43 51 44 49 38 C46 30 56 11 63 11 Z"/></g><g transform="translate(451 369) rotate(0) scale(0.2) translate(-50 -115)" fill="#304c61"><path d="M43 218 C55 184 41 154 47 119 C51 94 61 70 53 43 L54 42 C64 69 54 96 51 120 C45 153 58 187 44 218 Z"/><path d="M51 163 C62 148 77 139 93 136 C83 150 69 160 51 163 Z"/><path d="M47 123 C32 120 17 105 8 88 C25 94 43 109 47 123 Z"/><path d="M58 81 C64 66 77 55 91 49 C84 64 72 75 58 81 Z"/><path d="M63 11 C70 13 67 27 62 34 C56 43 51 44 49 38 C46 30 56 11 63 11 Z"/></g><g transform="translate(552 369) rotate(180) scale(0.2) translate(-50 -115)" fill="#304c61"><path d="M43 218 C55 184 41 154 47 119 C51 94 61 70 53 43 L54 42 C64 69 54 96 51 120 C45 153 58 187 44 218 Z"/><path d="M51 163 C62 148 77 139 93 136 C83 150 69 160 51 163 Z"/><path d="M47 123 C32 120 17 105 8 88 C25 94 43 109 47 123 Z"/><path d="M58 81 C64 66 77 55 91 49 C84 64 72 75 58 81 Z"/><path d="M63 11 C70 13 67 27 62 34 C56 43 51 44 49 38 C46 30 56 11 63 11 Z"/></g><g transform="translate(98 461) rotate(0) scale(0.2) translate(-50 -115)" fill="#304c61"><path d="M43 218 C55 184 41 154 47 119 C51 94 61 70 53 43 L54 42 C64 69 54 96 51 120 C45 153 58 187 44 218 Z"/><path d="M51 163 C62 148 77 139 93 136 C83 150 69 160 51 163 Z"/><path d="M47 123 C32 120 17 105 8 88 C25 94 43 109 47 123 Z"/><path d="M58 81 C64 66 77 55 91 49 C84 64 72 75 58 81 Z"/><path d="M63 11 C70 13 67 27 62 34 C56 43 51 44 49 38 C46 30 56 11 63 11 Z"/></g><g transform="translate(199 461) rotate(180) scale(0.2) translate(-50 -115)" fill="#304c61"><path d="M43 218 C55 184 41 154 47 119 C51 94 61 70 53 43 L54 42 C64 69 54 96 51 120 C45 153 58 187 44 218 Z"/><path d="M51 163 C62 148 77 139 93 136 C83 150 69 160 51 163 Z"/><path d="M47 123 C32 120 17 105 8 88 C25 94 43 109 47 123 Z"/><path d="M58 81 C64 66 77 55 91 49 C84 64 72 75 58 81 Z"/><path d="M63 11 C70 13 67 27 62 34 C56 43 51 44 49 38 C46 30 56 11 63 11 Z"/></g><g transform="translate(300 461) rotate(0) scale(0.2) translate(-50 -115)" fill="#304c61"><path d="M43 218 C55 184 41 154 47 119 C51 94 61 70 53 43 L54 42 C64 69 54 96 51 120 C45 153 58 187 44 218 Z"/><path d="M51 163 C62 148 77 139 93 136 C83 150 69 160 51 163 Z"/><path d="M47 123 C32 120 17 105 8 88 C25 94 43 109 47 123 Z"/><path d="M58 81 C64 66 77 55 91 49 C84 64 72 75 58 81 Z"/><path d="M63 11 C70 13 67 27 62 34 C56 43 51 44 49 38 C46 30 56 11 63 11 Z"/></g><g transform="translate(401 461) rotate(180) scale(0.2) translate(-50 -115)" fill="#304c61"><path d="M43 218 C55 184 41 154 47 119 C51 94 61 70 53 43 L54 42 C64 69 54 96 51 120 C45 153 58 187 44 218 Z"/><path d="M51 163 C62 148 77 139 93 136 C83 150 69 160 51 163 Z"/><path d="M47 123 C32 120 17 105 8 88 C25 94 43 109 47 123 Z"/><path d="M58 81 C64 66 77 55 91 49 C84 64 72 75 58 81 Z"/><path d="M63 11 C70 13 67 27 62 34 C56 43 51 44 49 38 C46 30 56 11 63 11 Z"/></g><g transform="translate(502 461) rotate(0) scale(0.2) translate(-50 -115)" fill="#304c61"><path d="M43 218 C55 184 41 154 47 119 C51 94 61 70 53 43 L54 42 C64 69 54 96 51 120 C45 153 58 187 44 218 Z"/><path d="M51 163 C62 148 77 139 93 136 C83 150 69 160 51 163 Z"/><path d="M47 123 C32 120 17 105 8 88 C25 94 43 109 47 123 Z"/><path d="M58 81 C64 66 77 55 91 49 C84 64 72 75 58 81 Z"/><path d="M63 11 C70 13 67 27 62 34 C56 43 51 44 49 38 C46 30 56 11 63 11 Z"/></g><g transform="translate(603 461) rotate(180) scale(0.2) translate(-50 -115)" fill="#304c61"><path d="M43 218 C55 184 41 154 47 119 C51 94 61 70 53 43 L54 42 C64 69 54 96 51 120 C45 153 58 187 44 218 Z"/><path d="M51 163 C62 148 77 139 93 136 C83 150 69 160 51 163 Z"/><path d="M47 123 C32 120 17 105 8 88 C25 94 43 109 47 123 Z"/><path d="M58 81 C64 66 77 55 91 49 C84 64 72 75 58 81 Z"/><path d="M63 11 C70 13 67 27 62 34 C56 43 51 44 49 38 C46 30 56 11 63 11 Z"/></g><g transform="translate(148 553) rotate(180) scale(0.2) translate(-50 -115)" fill="#304c61"><path d="M43 218 C55 184 41 154 47 119 C51 94 61 70 53 43 L54 42 C64 69 54 96 51 120 C45 153 58 187 44 218 Z"/><path d="M51 163 C62 148 77 139 93 136 C83 150 69 160 51 163 Z"/><path d="M47 123 C32 120 17 105 8 88 C25 94 43 109 47 123 Z"/><path d="M58 81 C64 66 77 55 91 49 C84 64 72 75 58 81 Z"/><path d="M63 11 C70 13 67 27 62 34 C56 43 51 44 49 38 C46 30 56 11 63 11 Z"/></g><g transform="translate(249 553) rotate(0) scale(0.2) translate(-50 -115)" fill="#304c61"><path d="M43 218 C55 184 41 154 47 119 C51 94 61 70 53 43 L54 42 C64 69 54 96 51 120 C45 153 58 187 44 218 Z"/><path d="M51 163 C62 148 77 139 93 136 C83 150 69 160 51 163 Z"/><path d="M47 123 C32 120 17 105 8 88 C25 94 43 109 47 123 Z"/><path d="M58 81 C64 66 77 55 91 49 C84 64 72 75 58 81 Z"/><path d="M63 11 C70 13 67 27 62 34 C56 43 51 44 49 38 C46 30 56 11 63 11 Z"/></g><g transform="translate(350 553) rotate(180) scale(0.2) translate(-50 -115)" fill="#304c61"><path d="M43 218 C55 184 41 154 47 119 C51 94 61 70 53 43 L54 42 C64 69 54 96 51 120 C45 153 58 187 44 218 Z"/><path d="M51 163 C62 148 77 139 93 136 C83 150 69 160 51 163 Z"/><path d="M47 123 C32 120 17 105 8 88 C25 94 43 109 47 123 Z"/><path d="M58 81 C64 66 77 55 91 49 C84 64 72 75 58 81 Z"/><path d="M63 11 C70 13 67 27 62 34 C56 43 51 44 49 38 C46 30 56 11 63 11 Z"/></g><g transform="translate(451 553) rotate(0) scale(0.2) translate(-50 -115)" fill="#304c61"><path d="M43 218 C55 184 41 154 47 119 C51 94 61 70 53 43 L54 42 C64 69 54 96 51 120 C45 153 58 187 44 218 Z"/><path d="M51 163 C62 148 77 139 93 136 C83 150 69 160 51 163 Z"/><path d="M47 123 C32 120 17 105 8 88 C25 94 43 109 47 123 Z"/><path d="M58 81 C64 66 77 55 91 49 C84 64 72 75 58 81 Z"/><path d="M63 11 C70 13 67 27 62 34 C56 43 51 44 49 38 C46 30 56 11 63 11 Z"/></g><g transform="translate(552 553) rotate(180) scale(0.2) translate(-50 -115)" fill="#304c61"><path d="M43 218 C55 184 41 154 47 119 C51 94 61 70 53 43 L54 42 C64 69 54 96 51 120 C45 153 58 187 44 218 Z"/><path d="M51 163 C62 148 77 139 93 136 C83 150 69 160 51 163 Z"/><path d="M47 123 C32 120 17 105 8 88 C25 94 43 109 47 123 Z"/><path d="M58 81 C64 66 77 55 91 49 C84 64 72 75 58 81 Z"/><path d="M63 11 C70 13 67 27 62 34 C56 43 51 44 49 38 C46 30 56 11 63 11 Z"/></g><g transform="translate(98 645) rotate(0) scale(0.2) translate(-50 -115)" fill="#304c61"><path d="M43 218 C55 184 41 154 47 119 C51 94 61 70 53 43 L54 42 C64 69 54 96 51 120 C45 153 58 187 44 218 Z"/><path d="M51 163 C62 148 77 139 93 136 C83 150 69 160 51 163 Z"/><path d="M47 123 C32 120 17 105 8 88 C25 94 43 109 47 123 Z"/><path d="M58 81 C64 66 77 55 91 49 C84 64 72 75 58 81 Z"/><path d="M63 11 C70 13 67 27 62 34 C56 43 51 44 49 38 C46 30 56 11 63 11 Z"/></g><g transform="translate(199 645) rotate(180) scale(0.2) translate(-50 -115)" fill="#304c61"><path d="M43 218 C55 184 41 154 47 119 C51 94 61 70 53 43 L54 42 C64 69 54 96 51 120 C45 153 58 187 44 218 Z"/><path d="M51 163 C62 148 77 139 93 136 C83 150 69 160 51 163 Z"/><path d="M47 123 C32 120 17 105 8 88 C25 94 43 109 47 123 Z"/><path d="M58 81 C64 66 77 55 91 49 C84 64 72 75 58 81 Z"/><path d="M63 11 C70 13 67 27 62 34 C56 43 51 44 49 38 C46 30 56 11 63 11 Z"/></g><g transform="translate(300 645) rotate(0) scale(0.2) translate(-50 -115)" fill="#304c61"><path d="M43 218 C55 184 41 154 47 119 C51 94 61 70 53 43 L54 42 C64 69 54 96 51 120 C45 153 58 187 44 218 Z"/><path d="M51 163 C62 148 77 139 93 136 C83 150 69 160 51 163 Z"/><path d="M47 123 C32 120 17 105 8 88 C25 94 43 109 47 123 Z"/><path d="M58 81 C64 66 77 55 91 49 C84 64 72 75 58 81 Z"/><path d="M63 11 C70 13 67 27 62 34 C56 43 51 44 49 38 C46 30 56 11 63 11 Z"/></g><g transform="translate(401 645) rotate(180) scale(0.2) translate(-50 -115)" fill="#304c61"><path d="M43 218 C55 184 41 154 47 119 C51 94 61 70 53 43 L54 42 C64 69 54 96 51 120 C45 153 58 187 44 218 Z"/><path d="M51 163 C62 148 77 139 93 136 C83 150 69 160 51 163 Z"/><path d="M47 123 C32 120 17 105 8 88 C25 94 43 109 47 123 Z"/><path d="M58 81 C64 66 77 55 91 49 C84 64 72 75 58 81 Z"/><path d="M63 11 C70 13 67 27 62 34 C56 43 51 44 49 38 C46 30 56 11 63 11 Z"/></g><g transform="translate(502 645) rotate(0) scale(0.2) translate(-50 -115)" fill="#304c61"><path d="M43 218 C55 184 41 154 47 119 C51 94 61 70 53 43 L54 42 C64 69 54 96 51 120 C45 153 58 187 44 218 Z"/><path d="M51 163 C62 148 77 139 93 136 C83 150 69 160 51 163 Z"/><path d="M47 123 C32 120 17 105 8 88 C25 94 43 109 47 123 Z"/><path d="M58 81 C64 66 77 55 91 49 C84 64 72 75 58 81 Z"/><path d="M63 11 C70 13 67 27 62 34 C56 43 51 44 49 38 C46 30 56 11 63 11 Z"/></g><g transform="translate(603 645) rotate(180) scale(0.2) translate(-50 -115)" fill="#304c61"><path d="M43 218 C55 184 41 154 47 119 C51 94 61 70 53 43 L54 42 C64 69 54 96 51 120 C45 153 58 187 44 218 Z"/><path d="M51 163 C62 148 77 139 93 136 C83 150 69 160 51 163 Z"/><path d="M47 123 C32 120 17 105 8 88 C25 94 43 109 47 123 Z"/><path d="M58 81 C64 66 77 55 91 49 C84 64 72 75 58 81 Z"/><path d="M63 11 C70 13 67 27 62 34 C56 43 51 44 49 38 C46 30 56 11 63 11 Z"/></g><g transform="translate(148 737) rotate(180) scale(0.2) translate(-50 -115)" fill="#304c61"><path d="M43 218 C55 184 41 154 47 119 C51 94 61 70 53 43 L54 42 C64 69 54 96 51 120 C45 153 58 187 44 218 Z"/><path d="M51 163 C62 148 77 139 93 136 C83 150 69 160 51 163 Z"/><path d="M47 123 C32 120 17 105 8 88 C25 94 43 109 47 123 Z"/><path d="M58 81 C64 66 77 55 91 49 C84 64 72 75 58 81 Z"/><path d="M63 11 C70 13 67 27 62 34 C56 43 51 44 49 38 C46 30 56 11 63 11 Z"/></g><g transform="translate(249 737) rotate(0) scale(0.2) translate(-50 -115)" fill="#304c61"><path d="M43 218 C55 184 41 154 47 119 C51 94 61 70 53 43 L54 42 C64 69 54 96 51 120 C45 153 58 187 44 218 Z"/><path d="M51 163 C62 148 77 139 93 136 C83 150 69 160 51 163 Z"/><path d="M47 123 C32 120 17 105 8 88 C25 94 43 109 47 123 Z"/><path d="M58 81 C64 66 77 55 91 49 C84 64 72 75 58 81 Z"/><path d="M63 11 C70 13 67 27 62 34 C56 43 51 44 49 38 C46 30 56 11 63 11 Z"/></g><g transform="translate(350 737) rotate(180) scale(0.2) translate(-50 -115)" fill="#304c61"><path d="M43 218 C55 184 41 154 47 119 C51 94 61 70 53 43 L54 42 C64 69 54 96 51 120 C45 153 58 187 44 218 Z"/><path d="M51 163 C62 148 77 139 93 136 C83 150 69 160 51 163 Z"/><path d="M47 123 C32 120 17 105 8 88 C25 94 43 109 47 123 Z"/><path d="M58 81 C64 66 77 55 91 49 C84 64 72 75 58 81 Z"/><path d="M63 11 C70 13 67 27 62 34 C56 43 51 44 49 38 C46 30 56 11 63 11 Z"/></g><g transform="translate(451 737) rotate(0) scale(0.2) translate(-50 -115)" fill="#304c61"><path d="M43 218 C55 184 41 154 47 119 C51 94 61 70 53 43 L54 42 C64 69 54 96 51 120 C45 153 58 187 44 218 Z"/><path d="M51 163 C62 148 77 139 93 136 C83 150 69 160 51 163 Z"/><path d="M47 123 C32 120 17 105 8 88 C25 94 43 109 47 123 Z"/><path d="M58 81 C64 66 77 55 91 49 C84 64 72 75 58 81 Z"/><path d="M63 11 C70 13 67 27 62 34 C56 43 51 44 49 38 C46 30 56 11 63 11 Z"/></g><g transform="translate(552 737) rotate(180) scale(0.2) translate(-50 -115)" fill="#304c61"><path d="M43 218 C55 184 41 154 47 119 C51 94 61 70 53 43 L54 42 C64 69 54 96 51 120 C45 153 58 187 44 218 Z"/><path d="M51 163 C62 148 77 139 93 136 C83 150 69 160 51 163 Z"/><path d="M47 123 C32 120 17 105 8 88 C25 94 43 109 47 123 Z"/><path d="M58 81 C64 66 77 55 91 49 C84 64 72 75 58 81 Z"/><path d="M63 11 C70 13 67 27 62 34 C56 43 51 44 49 38 C46 30 56 11 63 11 Z"/></g><g transform="translate(98 829) rotate(0) scale(0.2) translate(-50 -115)" fill="#304c61"><path d="M43 218 C55 184 41 154 47 119 C51 94 61 70 53 43 L54 42 C64 69 54 96 51 120 C45 153 58 187 44 218 Z"/><path d="M51 163 C62 148 77 139 93 136 C83 150 69 160 51 163 Z"/><path d="M47 123 C32 120 17 105 8 88 C25 94 43 109 47 123 Z"/><path d="M58 81 C64 66 77 55 91 49 C84 64 72 75 58 81 Z"/><path d="M63 11 C70 13 67 27 62 34 C56 43 51 44 49 38 C46 30 56 11 63 11 Z"/></g><g transform="translate(199 829) rotate(180) scale(0.2) translate(-50 -115)" fill="#304c61"><path d="M43 218 C55 184 41 154 47 119 C51 94 61 70 53 43 L54 42 C64 69 54 96 51 120 C45 153 58 187 44 218 Z"/><path d="M51 163 C62 148 77 139 93 136 C83 150 69 160 51 163 Z"/><path d="M47 123 C32 120 17 105 8 88 C25 94 43 109 47 123 Z"/><path d="M58 81 C64 66 77 55 91 49 C84 64 72 75 58 81 Z"/><path d="M63 11 C70 13 67 27 62 34 C56 43 51 44 49 38 C46 30 56 11 63 11 Z"/></g><g transform="translate(300 829) rotate(0) scale(0.2) translate(-50 -115)" fill="#304c61"><path d="M43 218 C55 184 41 154 47 119 C51 94 61 70 53 43 L54 42 C64 69 54 96 51 120 C45 153 58 187 44 218 Z"/><path d="M51 163 C62 148 77 139 93 136 C83 150 69 160 51 163 Z"/><path d="M47 123 C32 120 17 105 8 88 C25 94 43 109 47 123 Z"/><path d="M58 81 C64 66 77 55 91 49 C84 64 72 75 58 81 Z"/><path d="M63 11 C70 13 67 27 62 34 C56 43 51 44 49 38 C46 30 56 11 63 11 Z"/></g><g transform="translate(401 829) rotate(180) scale(0.2) translate(-50 -115)" fill="#304c61"><path d="M43 218 C55 184 41 154 47 119 C51 94 61 70 53 43 L54 42 C64 69 54 96 51 120 C45 153 58 187 44 218 Z"/><path d="M51 163 C62 148 77 139 93 136 C83 150 69 160 51 163 Z"/><path d="M47 123 C32 120 17 105 8 88 C25 94 43 109 47 123 Z"/><path d="M58 81 C64 66 77 55 91 49 C84 64 72 75 58 81 Z"/><path d="M63 11 C70 13 67 27 62 34 C56 43 51 44 49 38 C46 30 56 11 63 11 Z"/></g><g transform="translate(502 829) rotate(0) scale(0.2) translate(-50 -115)" fill="#304c61"><path d="M43 218 C55 184 41 154 47 119 C51 94 61 70 53 43 L54 42 C64 69 54 96 51 120 C45 153 58 187 44 218 Z"/><path d="M51 163 C62 148 77 139 93 136 C83 150 69 160 51 163 Z"/><path d="M47 123 C32 120 17 105 8 88 C25 94 43 109 47 123 Z"/><path d="M58 81 C64 66 77 55 91 49 C84 64 72 75 58 81 Z"/><path d="M63 11 C70 13 67 27 62 34 C56 43 51 44 49 38 C46 30 56 11 63 11 Z"/></g><g transform="translate(603 829) rotate(180) scale(0.2) translate(-50 -115)" fill="#304c61"><path d="M43 218 C55 184 41 154 47 119 C51 94 61 70 53 43 L54 42 C64 69 54 96 51 120 C45 153 58 187 44 218 Z"/><path d="M51 163 C62 148 77 139 93 136 C83 150 69 160 51 163 Z"/><path d="M47 123 C32 120 17 105 8 88 C25 94 43 109 47 123 Z"/><path d="M58 81 C64 66 77 55 91 49 C84 64 72 75 58 81 Z"/><path d="M63 11 C70 13 67 27 62 34 C56 43 51 44 49 38 C46 30 56 11 63 11 Z"/></g><g transform="translate(148 921) rotate(180) scale(0.2) translate(-50 -115)" fill="#304c61"><path d="M43 218 C55 184 41 154 47 119 C51 94 61 70 53 43 L54 42 C64 69 54 96 51 120 C45 153 58 187 44 218 Z"/><path d="M51 163 C62 148 77 139 93 136 C83 150 69 160 51 163 Z"/><path d="M47 123 C32 120 17 105 8 88 C25 94 43 109 47 123 Z"/><path d="M58 81 C64 66 77 55 91 49 C84 64 72 75 58 81 Z"/><path d="M63 11 C70 13 67 27 62 34 C56 43 51 44 49 38 C46 30 56 11 63 11 Z"/></g><g transform="translate(249 921) rotate(0) scale(0.2) translate(-50 -115)" fill="#304c61"><path d="M43 218 C55 184 41 154 47 119 C51 94 61 70 53 43 L54 42 C64 69 54 96 51 120 C45 153 58 187 44 218 Z"/><path d="M51 163 C62 148 77 139 93 136 C83 150 69 160 51 163 Z"/><path d="M47 123 C32 120 17 105 8 88 C25 94 43 109 47 123 Z"/><path d="M58 81 C64 66 77 55 91 49 C84 64 72 75 58 81 Z"/><path d="M63 11 C70 13 67 27 62 34 C56 43 51 44 49 38 C46 30 56 11 63 11 Z"/></g><g transform="translate(350 921) rotate(180) scale(0.2) translate(-50 -115)" fill="#304c61"><path d="M43 218 C55 184 41 154 47 119 C51 94 61 70 53 43 L54 42 C64 69 54 96 51 120 C45 153 58 187 44 218 Z"/><path d="M51 163 C62 148 77 139 93 136 C83 150 69 160 51 163 Z"/><path d="M47 123 C32 120 17 105 8 88 C25 94 43 109 47 123 Z"/><path d="M58 81 C64 66 77 55 91 49 C84 64 72 75 58 81 Z"/><path d="M63 11 C70 13 67 27 62 34 C56 43 51 44 49 38 C46 30 56 11 63 11 Z"/></g><g transform="translate(451 921) rotate(0) scale(0.2) translate(-50 -115)" fill="#304c61"><path d="M43 218 C55 184 41 154 47 119 C51 94 61 70 53 43 L54 42 C64 69 54 96 51 120 C45 153 58 187 44 218 Z"/><path d="M51 163 C62 148 77 139 93 136 C83 150 69 160 51 163 Z"/><path d="M47 123 C32 120 17 105 8 88 C25 94 43 109 47 123 Z"/><path d="M58 81 C64 66 77 55 91 49 C84 64 72 75 58 81 Z"/><path d="M63 11 C70 13 67 27 62 34 C56 43 51 44 49 38 C46 30 56 11 63 11 Z"/></g><g transform="translate(552 921) rotate(180) scale(0.2) translate(-50 -115)" fill="#304c61"><path d="M43 218 C55 184 41 154 47 119 C51 94 61 70 53 43 L54 42 C64 69 54 96 51 120 C45 153 58 187 44 218 Z"/><path d="M51 163 C62 148 77 139 93 136 C83 150 69 160 51 163 Z"/><path d="M47 123 C32 120 17 105 8 88 C25 94 43 109 47 123 Z"/><path d="M58 81 C64 66 77 55 91 49 C84 64 72 75 58 81 Z"/><path d="M63 11 C70 13 67 27 62 34 C56 43 51 44 49 38 C46 30 56 11 63 11 Z"/></g><g transform="translate(98 1013) rotate(0) scale(0.2) translate(-50 -115)" fill="#304c61"><path d="M43 218 C55 184 41 154 47 119 C51 94 61 70 53 43 L54 42 C64 69 54 96 51 120 C45 153 58 187 44 218 Z"/><path d="M51 163 C62 148 77 139 93 136 C83 150 69 160 51 163 Z"/><path d="M47 123 C32 120 17 105 8 88 C25 94 43 109 47 123 Z"/><path d="M58 81 C64 66 77 55 91 49 C84 64 72 75 58 81 Z"/><path d="M63 11 C70 13 67 27 62 34 C56 43 51 44 49 38 C46 30 56 11 63 11 Z"/></g><g transform="translate(199 1013) rotate(180) scale(0.2) translate(-50 -115)" fill="#304c61"><path d="M43 218 C55 184 41 154 47 119 C51 94 61 70 53 43 L54 42 C64 69 54 96 51 120 C45 153 58 187 44 218 Z"/><path d="M51 163 C62 148 77 139 93 136 C83 150 69 160 51 163 Z"/><path d="M47 123 C32 120 17 105 8 88 C25 94 43 109 47 123 Z"/><path d="M58 81 C64 66 77 55 91 49 C84 64 72 75 58 81 Z"/><path d="M63 11 C70 13 67 27 62 34 C56 43 51 44 49 38 C46 30 56 11 63 11 Z"/></g><g transform="translate(300 1013) rotate(0) scale(0.2) translate(-50 -115)" fill="#304c61"><path d="M43 218 C55 184 41 154 47 119 C51 94 61 70 53 43 L54 42 C64 69 54 96 51 120 C45 153 58 187 44 218 Z"/><path d="M51 163 C62 148 77 139 93 136 C83 150 69 160 51 163 Z"/><path d="M47 123 C32 120 17 105 8 88 C25 94 43 109 47 123 Z"/><path d="M58 81 C64 66 77 55 91 49 C84 64 72 75 58 81 Z"/><path d="M63 11 C70 13 67 27 62 34 C56 43 51 44 49 38 C46 30 56 11 63 11 Z"/></g><g transform="translate(401 1013) rotate(180) scale(0.2) translate(-50 -115)" fill="#304c61"><path d="M43 218 C55 184 41 154 47 119 C51 94 61 70 53 43 L54 42 C64 69 54 96 51 120 C45 153 58 187 44 218 Z"/><path d="M51 163 C62 148 77 139 93 136 C83 150 69 160 51 163 Z"/><path d="M47 123 C32 120 17 105 8 88 C25 94 43 109 47 123 Z"/><path d="M58 81 C64 66 77 55 91 49 C84 64 72 75 58 81 Z"/><path d="M63 11 C70 13 67 27 62 34 C56 43 51 44 49 38 C46 30 56 11 63 11 Z"/></g><g transform="translate(502 1013) rotate(0) scale(0.2) translate(-50 -115)" fill="#304c61"><path d="M43 218 C55 184 41 154 47 119 C51 94 61 70 53 43 L54 42 C64 69 54 96 51 120 C45 153 58 187 44 218 Z"/><path d="M51 163 C62 148 77 139 93 136 C83 150 69 160 51 163 Z"/><path d="M47 123 C32 120 17 105 8 88 C25 94 43 109 47 123 Z"/><path d="M58 81 C64 66 77 55 91 49 C84 64 72 75 58 81 Z"/><path d="M63 11 C70 13 67 27 62 34 C56 43 51 44 49 38 C46 30 56 11 63 11 Z"/></g><g transform="translate(603 1013) rotate(180) scale(0.2) translate(-50 -115)" fill="#304c61"><path d="M43 218 C55 184 41 154 47 119 C51 94 61 70 53 43 L54 42 C64 69 54 96 51 120 C45 153 58 187 44 218 Z"/><path d="M51 163 C62 148 77 139 93 136 C83 150 69 160 51 163 Z"/><path d="M47 123 C32 120 17 105 8 88 C25 94 43 109 47 123 Z"/><path d="M58 81 C64 66 77 55 91 49 C84 64 72 75 58 81 Z"/><path d="M63 11 C70 13 67 27 62 34 C56 43 51 44 49 38 C46 30 56 11 63 11 Z"/></g><g transform="translate(148 1105) rotate(180) scale(0.2) translate(-50 -115)" fill="#304c61"><path d="M43 218 C55 184 41 154 47 119 C51 94 61 70 53 43 L54 42 C64 69 54 96 51 120 C45 153 58 187 44 218 Z"/><path d="M51 163 C62 148 77 139 93 136 C83 150 69 160 51 163 Z"/><path d="M47 123 C32 120 17 105 8 88 C25 94 43 109 47 123 Z"/><path d="M58 81 C64 66 77 55 91 49 C84 64 72 75 58 81 Z"/><path d="M63 11 C70 13 67 27 62 34 C56 43 51 44 49 38 C46 30 56 11 63 11 Z"/></g><g transform="translate(249 1105) rotate(0) scale(0.2) translate(-50 -115)" fill="#304c61"><path d="M43 218 C55 184 41 154 47 119 C51 94 61 70 53 43 L54 42 C64 69 54 96 51 120 C45 153 58 187 44 218 Z"/><path d="M51 163 C62 148 77 139 93 136 C83 150 69 160 51 163 Z"/><path d="M47 123 C32 120 17 105 8 88 C25 94 43 109 47 123 Z"/><path d="M58 81 C64 66 77 55 91 49 C84 64 72 75 58 81 Z"/><path d="M63 11 C70 13 67 27 62 34 C56 43 51 44 49 38 C46 30 56 11 63 11 Z"/></g><g transform="translate(350 1105) rotate(180) scale(0.2) translate(-50 -115)" fill="#304c61"><path d="M43 218 C55 184 41 154 47 119 C51 94 61 70 53 43 L54 42 C64 69 54 96 51 120 C45 153 58 187 44 218 Z"/><path d="M51 163 C62 148 77 139 93 136 C83 150 69 160 51 163 Z"/><path d="M47 123 C32 120 17 105 8 88 C25 94 43 109 47 123 Z"/><path d="M58 81 C64 66 77 55 91 49 C84 64 72 75 58 81 Z"/><path d="M63 11 C70 13 67 27 62 34 C56 43 51 44 49 38 C46 30 56 11 63 11 Z"/></g><g transform="translate(451 1105) rotate(0) scale(0.2) translate(-50 -115)" fill="#304c61"><path d="M43 218 C55 184 41 154 47 119 C51 94 61 70 53 43 L54 42 C64 69 54 96 51 120 C45 153 58 187 44 218 Z"/><path d="M51 163 C62 148 77 139 93 136 C83 150 69 160 51 163 Z"/><path d="M47 123 C32 120 17 105 8 88 C25 94 43 109 47 123 Z"/><path d="M58 81 C64 66 77 55 91 49 C84 64 72 75 58 81 Z"/><path d="M63 11 C70 13 67 27 62 34 C56 43 51 44 49 38 C46 30 56 11 63 11 Z"/></g><g transform="translate(552 1105) rotate(180) scale(0.2) translate(-50 -115)" fill="#304c61"><path d="M43 218 C55 184 41 154 47 119 C51 94 61 70 53 43 L54 42 C64 69 54 96 51 120 C45 153 58 187 44 218 Z"/><path d="M51 163 C62 148 77 139 93 136 C83 150 69 160 51 163 Z"/><path d="M47 123 C32 120 17 105 8 88 C25 94 43 109 47 123 Z"/><path d="M58 81 C64 66 77 55 91 49 C84 64 72 75 58 81 Z"/><path d="M63 11 C70 13 67 27 62 34 C56 43 51 44 49 38 C46 30 56 11 63 11 Z"/></g><g><ellipse cx="350" cy="365" rx="49" ry="79" fill="#0b2034" stroke="#b6a071" stroke-width="1"/><g transform="translate(350 365) rotate(0) scale(0.5) translate(-50 -115)" fill="#d4cfba"><path d="M43 218 C55 184 41 154 47 119 C51 94 61 70 53 43 L54 42 C64 69 54 96 51 120 C45 153 58 187 44 218 Z"/><path d="M51 163 C62 148 77 139 93 136 C83 150 69 160 51 163 Z"/><path d="M47 123 C32 120 17 105 8 88 C25 94 43 109 47 123 Z"/><path d="M58 81 C64 66 77 55 91 49 C84 64 72 75 58 81 Z"/><path d="M63 11 C70 13 67 27 62 34 C56 43 51 44 49 38 C46 30 56 11 63 11 Z"/></g></g><g transform="rotate(180 350 600)"><ellipse cx="350" cy="365" rx="49" ry="79" fill="#0b2034" stroke="#b6a071" stroke-width="1"/><g transform="translate(350 365) rotate(0) scale(0.5) translate(-50 -115)" fill="#d4cfba"><path d="M43 218 C55 184 41 154 47 119 C51 94 61 70 53 43 L54 42 C64 69 54 96 51 120 C45 153 58 187 44 218 Z"/><path d="M51 163 C62 148 77 139 93 136 C83 150 69 160 51 163 Z"/><path d="M47 123 C32 120 17 105 8 88 C25 94 43 109 47 123 Z"/><path d="M58 81 C64 66 77 55 91 49 C84 64 72 75 58 81 Z"/><path d="M63 11 C70 13 67 27 62 34 C56 43 51 44 49 38 C46 30 56 11 63 11 Z"/></g></g><g><path d="M350 444C510 455 510 548 350 600C190 548 190 455 350 444" fill="none" stroke="#b6a071" stroke-width="0.9"/></g><g transform="rotate(180 350 600)"><path d="M350 444C510 455 510 548 350 600C190 548 190 455 350 444" fill="none" stroke="#b6a071" stroke-width="0.9"/></g><g><g transform="translate(90 160) rotate(-45) scale(0.42)"><path d="M0 0 Q-12 -23 0 -58 Q10 -20 0 0Z" fill="#7790a0"/><path d="M0 -3L0 -54" stroke="#0b2034" stroke-width="1"/></g><g transform="translate(120 142) rotate(-45) scale(0.42)"><path d="M0 0 Q-12 -23 0 -58 Q10 -20 0 0Z" fill="#7790a0"/><path d="M0 -3L0 -54" stroke="#0b2034" stroke-width="1"/></g><g transform="translate(150 124) rotate(-45) scale(0.42)"><path d="M0 0 Q-12 -23 0 -58 Q10 -20 0 0Z" fill="#7790a0"/><path d="M0 -3L0 -54" stroke="#0b2034" stroke-width="1"/></g><g transform="translate(180 106) rotate(-45) scale(0.42)"><path d="M0 0 Q-12 -23 0 -58 Q10 -20 0 0Z" fill="#7790a0"/><path d="M0 -3L0 -54" stroke="#0b2034" stroke-width="1"/></g><g transform="translate(210 88) rotate(-45) scale(0.42)"><path d="M0 0 Q-12 -23 0 -58 Q10 -20 0 0Z" fill="#7790a0"/><path d="M0 -3L0 -54" stroke="#0b2034" stroke-width="1"/></g><g transform="translate(700 0) scale(-1 1)"><g transform="translate(90 160) rotate(-45) scale(0.42)"><path d="M0 0 Q-12 -23 0 -58 Q10 -20 0 0Z" fill="#7790a0"/><path d="M0 -3L0 -54" stroke="#0b2034" stroke-width="1"/></g><g transform="translate(120 142) rotate(-45) scale(0.42)"><path d="M0 0 Q-12 -23 0 -58 Q10 -20 0 0Z" fill="#7790a0"/><path d="M0 -3L0 -54" stroke="#0b2034" stroke-width="1"/></g><g transform="translate(150 124) rotate(-45) scale(0.42)"><path d="M0 0 Q-12 -23 0 -58 Q10 -20 0 0Z" fill="#7790a0"/><path d="M0 -3L0 -54" stroke="#0b2034" stroke-width="1"/></g><g transform="translate(180 106) rotate(-45) scale(0.42)"><path d="M0 0 Q-12 -23 0 -58 Q10 -20 0 0Z" fill="#7790a0"/><path d="M0 -3L0 -54" stroke="#0b2034" stroke-width="1"/></g><g transform="translate(210 88) rotate(-45) scale(0.42)"><path d="M0 0 Q-12 -23 0 -58 Q10 -20 0 0Z" fill="#7790a0"/><path d="M0 -3L0 -54" stroke="#0b2034" stroke-width="1"/></g></g></g><g transform="rotate(180 350 600)"><g transform="translate(90 160) rotate(-45) scale(0.42)"><path d="M0 0 Q-12 -23 0 -58 Q10 -20 0 0Z" fill="#7790a0"/><path d="M0 -3L0 -54" stroke="#0b2034" stroke-width="1"/></g><g transform="translate(120 142) rotate(-45) scale(0.42)"><path d="M0 0 Q-12 -23 0 -58 Q10 -20 0 0Z" fill="#7790a0"/><path d="M0 -3L0 -54" stroke="#0b2034" stroke-width="1"/></g><g transform="translate(150 124) rotate(-45) scale(0.42)"><path d="M0 0 Q-12 -23 0 -58 Q10 -20 0 0Z" fill="#7790a0"/><path d="M0 -3L0 -54" stroke="#0b2034" stroke-width="1"/></g><g transform="translate(180 106) rotate(-45) scale(0.42)"><path d="M0 0 Q-12 -23 0 -58 Q10 -20 0 0Z" fill="#7790a0"/><path d="M0 -3L0 -54" stroke="#0b2034" stroke-width="1"/></g><g transform="translate(210 88) rotate(-45) scale(0.42)"><path d="M0 0 Q-12 -23 0 -58 Q10 -20 0 0Z" fill="#7790a0"/><path d="M0 -3L0 -54" stroke="#0b2034" stroke-width="1"/></g><g transform="translate(700 0) scale(-1 1)"><g transform="translate(90 160) rotate(-45) scale(0.42)"><path d="M0 0 Q-12 -23 0 -58 Q10 -20 0 0Z" fill="#7790a0"/><path d="M0 -3L0 -54" stroke="#0b2034" stroke-width="1"/></g><g transform="translate(120 142) rotate(-45) scale(0.42)"><path d="M0 0 Q-12 -23 0 -58 Q10 -20 0 0Z" fill="#7790a0"/><path d="M0 -3L0 -54" stroke="#0b2034" stroke-width="1"/></g><g transform="translate(150 124) rotate(-45) scale(0.42)"><path d="M0 0 Q-12 -23 0 -58 Q10 -20 0 0Z" fill="#7790a0"/><path d="M0 -3L0 -54" stroke="#0b2034" stroke-width="1"/></g><g transform="translate(180 106) rotate(-45) scale(0.42)"><path d="M0 0 Q-12 -23 0 -58 Q10 -20 0 0Z" fill="#7790a0"/><path d="M0 -3L0 -54" stroke="#0b2034" stroke-width="1"/></g><g transform="translate(210 88) rotate(-45) scale(0.42)"><path d="M0 0 Q-12 -23 0 -58 Q10 -20 0 0Z" fill="#7790a0"/><path d="M0 -3L0 -54" stroke="#0b2034" stroke-width="1"/></g></g></g></g></svg>