<svg xmlns="http://www.w3.org/2000/svg" width="700" height="1200" viewBox="0 0 700 1200"><defs><clipPath id="inside"><rect x="62" y="62" width="576" height="1076" rx="22"/></clipPath></defs><rect width="700" height="1200" rx="24" fill="#0b2034"/><rect x="25" y="25" width="650" height="1150" rx="24" fill="none" stroke="#b6a071" stroke-width="0.9"/><rect x="34" y="34" width="632" height="1132" rx="20" fill="none" stroke="#7790a0" stroke-width="0.8"/><rect x="53" y="53" width="594" height="1094" rx="30" fill="none" stroke="#b6a071" stroke-width="0.7"/><g clip-path="url(#inside)"><path d="M65 42C125 82 5 144 65 205" fill="none" stroke="#6c8390" stroke-width="1.2"/><g transform="translate(72 92) rotate(-48) scale(0.59)"><path d="M0 0 Q-12 -23 0 -58 Q10 -20 0 0Z" fill="#7790a0"/><path d="M0 -3L0 -54" stroke="#0b2034" stroke-width="1"/></g><g transform="translate(58 122) rotate(135) scale(0.59)"><path d="M0 0 Q-12 -23 0 -58 Q10 -20 0 0Z" fill="#7790a0"/><path d="M0 -3L0 -54" stroke="#0b2034" stroke-width="1"/></g><ellipse cx="87" cy="135" rx="3.5" ry="7" fill="#b6a071"/><path d="M175 42C235 82 115 144 175 205" fill="none" stroke="#6c8390" stroke-width="1.2"/><g transform="translate(182 92) rotate(-48) scale(0.59)"><path d="M0 0 Q-12 -23 0 -58 Q10 -20 0 0Z" fill="#7790a0"/><path d="M0 -3L0 -54" stroke="#0b2034" stroke-width="1"/></g><g transform="translate(168 122) rotate(135) scale(0.59)"><path d="M0 0 Q-12 -23 0 -58 Q10 -20 0 0Z" fill="#7790a0"/><path d="M0 -3L0 -54" stroke="#0b2034" stroke-width="1"/></g><path d="M285 42C345 82 225 144 285 205" fill="none" stroke="#6c8390" stroke-width="1.2"/><g transform="translate(292 92) rotate(-48) scale(0.59)"><path d="M0 0 Q-12 -23 0 -58 Q10 -20 0 0Z" fill="#7790a0"/><path d="M0 -3L0 -54" stroke="#0b2034" stroke-width="1"/></g><g transform="translate(278 122) rotate(135) scale(0.59)"><path d="M0 0 Q-12 -23 0 -58 Q10 -20 0 0Z" fill="#7790a0"/><path d="M0 -3L0 -54" stroke="#0b2034" stroke-width="1"/></g><path d="M395 42C455 82 335 144 395 205" fill="none" stroke="#6c8390" stroke-width="1.2"/><g transform="translate(402 92) rotate(-48) scale(0.59)"><path d="M0 0 Q-12 -23 0 -58 Q10 -20 0 0Z" fill="#7790a0"/><path d="M0 -3L0 -54" stroke="#0b2034" stroke-width="1"/></g><g transform="translate(388 122) rotate(135) scale(0.59)"><path d="M0 0 Q-12 -23 0 -58 Q10 -20 0 0Z" fill="#7790a0"/><path d="M0 -3L0 -54" stroke="#0b2034" stroke-width="1"/></g><ellipse cx="417" cy="135" rx="3.5" ry="7" fill="#b6a071"/><path d="M505 42C565 82 445 144 505 205" fill="none" stroke="#6c8390" stroke-width="1.2"/><g transform="translate(512 92) rotate(-48) scale(0.59)"><path d="M0 0 Q-12 -23 0 -58 Q10 -20 0 0Z" fill="#7790a0"/><path d="M0 -3L0 -54" stroke="#0b2034" stroke-width="1"/></g><g transform="translate(498 122) rotate(135) scale(0.59)"><path d="M0 0 Q-12 -23 0 -58 Q10 -20 0 0Z" fill="#7790a0"/><path d="M0 -3L0 -54" stroke="#0b2034" stroke-width="1"/></g><path d="M615 42C675 82 555 144 615 205" fill="none" stroke="#6c8390" stroke-width="1.2"/><g transform="translate(622 92) rotate(-48) scale(0.59)"><path d="M0 0 Q-12 -23 0 -58 Q10 -20 0 0Z" fill="#7790a0"/><path d="M0 -3L0 -54" stroke="#0b2034" stroke-width="1"/></g><g transform="translate(608 122) rotate(135) scale(0.59)"><path d="M0 0 Q-12 -23 0 -58 Q10 -20 0 0Z" fill="#7790a0"/><path d="M0 -3L0 -54" stroke="#0b2034" stroke-width="1"/></g><path d="M65 155C125 195 5 257 65 318" fill="none" stroke="#6c8390" stroke-width="1.2"/><g transform="translate(72 205) rotate(-48) scale(0.59)"><path d="M0 0 Q-12 -23 0 -58 Q10 -20 0 0Z" fill="#7790a0"/><path d="M0 -3L0 -54" stroke="#0b2034" stroke-width="1"/></g><g transform="translate(58 235) rotate(135) scale(0.59)"><path d="M0 0 Q-12 -23 0 -58 Q10 -20 0 0Z" fill="#7790a0"/><path d="M0 -3L0 -54" stroke="#0b2034" stroke-width="1"/></g><path d="M175 155C235 195 115 257 175 318" fill="none" stroke="#6c8390" stroke-width="1.2"/><g transform="translate(182 205) rotate(-48) scale(0.59)"><path d="M0 0 Q-12 -23 0 -58 Q10 -20 0 0Z" fill="#7790a0"/><path d="M0 -3L0 -54" stroke="#0b2034" stroke-width="1"/></g><g transform="translate(168 235) rotate(135) scale(0.59)"><path d="M0 0 Q-12 -23 0 -58 Q10 -20 0 0Z" fill="#7790a0"/><path d="M0 -3L0 -54" stroke="#0b2034" stroke-width="1"/></g><path d="M285 155C345 195 225 257 285 318" fill="none" stroke="#6c8390" stroke-width="1.2"/><g transform="translate(292 205) rotate(-48) scale(0.59)"><path d="M0 0 Q-12 -23 0 -58 Q10 -20 0 0Z" fill="#7790a0"/><path d="M0 -3L0 -54" stroke="#0b2034" stroke-width="1"/></g><g transform="translate(278 235) rotate(135) scale(0.59)"><path d="M0 0 Q-12 -23 0 -58 Q10 -20 0 0Z" fill="#7790a0"/><path d="M0 -3L0 -54" stroke="#0b2034" stroke-width="1"/></g><ellipse cx="307" cy="248" rx="3.5" ry="7" fill="#b6a071"/><path d="M395 155C455 195 335 257 395 318" fill="none" stroke="#6c8390" stroke-width="1.2"/><g transform="translate(402 205) rotate(-48) scale(0.59)"><path d="M0 0 Q-12 -23 0 -58 Q10 -20 0 0Z" fill="#7790a0"/><path d="M0 -3L0 -54" stroke="#0b2034" stroke-width="1"/></g><g transform="translate(388 235) rotate(135) scale(0.59)"><path d="M0 0 Q-12 -23 0 -58 Q10 -20 0 0Z" fill="#7790a0"/><path d="M0 -3L0 -54" stroke="#0b2034" stroke-width="1"/></g><path d="M505 155C565 195 445 257 505 318" fill="none" stroke="#6c8390" stroke-width="1.2"/><g transform="translate(512 205) rotate(-48) scale(0.59)"><path d="M0 0 Q-12 -23 0 -58 Q10 -20 0 0Z" fill="#7790a0"/><path d="M0 -3L0 -54" stroke="#0b2034" stroke-width="1"/></g><g transform="translate(498 235) rotate(135) scale(0.59)"><path d="M0 0 Q-12 -23 0 -58 Q10 -20 0 0Z" fill="#7790a0"/><path d="M0 -3L0 -54" stroke="#0b2034" stroke-width="1"/></g><path d="M615 155C675 195 555 257 615 318" fill="none" stroke="#6c8390" stroke-width="1.2"/><g transform="translate(622 205) rotate(-48) scale(0.59)"><path d="M0 0 Q-12 -23 0 -58 Q10 -20 0 0Z" fill="#7790a0"/><path d="M0 -3L0 -54" stroke="#0b2034" stroke-width="1"/></g><g transform="translate(608 235) rotate(135) scale(0.59)"><path d="M0 0 Q-12 -23 0 -58 Q10 -20 0 0Z" fill="#7790a0"/><path d="M0 -3L0 -54" stroke="#0b2034" stroke-width="1"/></g><ellipse cx="637" cy="248" rx="3.5" ry="7" fill="#b6a071"/><path d="M65 268C125 308 5 370 65 431" fill="none" stroke="#6c8390" stroke-width="1.2"/><g transform="translate(72 318) rotate(-48) scale(0.59)"><path d="M0 0 Q-12 -23 0 -58 Q10 -20 0 0Z" fill="#7790a0"/><path d="M0 -3L0 -54" stroke="#0b2034" stroke-width="1"/></g><g transform="translate(58 348) rotate(135) scale(0.59)"><path d="M0 0 Q-12 -23 0 -58 Q10 -20 0 0Z" fill="#7790a0"/><path d="M0 -3L0 -54" stroke="#0b2034" stroke-width="1"/></g><path d="M175 268C235 308 115 370 175 431" fill="none" stroke="#6c8390" stroke-width="1.2"/><g transform="translate(182 318) rotate(-48) scale(0.59)"><path d="M0 0 Q-12 -23 0 -58 Q10 -20 0 0Z" fill="#7790a0"/><path d="M0 -3L0 -54" stroke="#0b2034" stroke-width="1"/></g><g transform="translate(168 348) rotate(135) scale(0.59)"><path d="M0 0 Q-12 -23 0 -58 Q10 -20 0 0Z" fill="#7790a0"/><path d="M0 -3L0 -54" stroke="#0b2034" stroke-width="1"/></g><ellipse cx="197" cy="361" rx="3.5" ry="7" fill="#b6a071"/><path d="M285 268C345 308 225 370 285 431" fill="none" stroke="#6c8390" stroke-width="1.2"/><g transform="translate(292 318) rotate(-48) scale(0.59)"><path d="M0 0 Q-12 -23 0 -58 Q10 -20 0 0Z" fill="#7790a0"/><path d="M0 -3L0 -54" stroke="#0b2034" stroke-width="1"/></g><g transform="translate(278 348) rotate(135) scale(0.59)"><path d="M0 0 Q-12 -23 0 -58 Q10 -20 0 0Z" fill="#7790a0"/><path d="M0 -3L0 -54" stroke="#0b2034" stroke-width="1"/></g><path d="M395 268C455 308 335 370 395 431" fill="none" stroke="#6c8390" stroke-width="1.2"/><g transform="translate(402 318) rotate(-48) scale(0.59)"><path d="M0 0 Q-12 -23 0 -58 Q10 -20 0 0Z" fill="#7790a0"/><path d="M0 -3L0 -54" stroke="#0b2034" stroke-width="1"/></g><g transform="translate(388 348) rotate(135) scale(0.59)"><path d="M0 0 Q-12 -23 0 -58 Q10 -20 0 0Z" fill="#7790a0"/><path d="M0 -3L0 -54" stroke="#0b2034" stroke-width="1"/></g><path d="M505 268C565 308 445 370 505 431" fill="none" stroke="#6c8390" stroke-width="1.2"/><g transform="translate(512 318) rotate(-48) scale(0.59)"><path d="M0 0 Q-12 -23 0 -58 Q10 -20 0 0Z" fill="#7790a0"/><path d="M0 -3L0 -54" stroke="#0b2034" stroke-width="1"/></g><g transform="translate(498 348) rotate(135) scale(0.59)"><path d="M0 0 Q-12 -23 0 -58 Q10 -20 0 0Z" fill="#7790a0"/><path d="M0 -3L0 -54" stroke="#0b2034" stroke-width="1"/></g><ellipse cx="527" cy="361" rx="3.5" ry="7" fill="#b6a071"/><path d="M615 268C675 308 555 370 615 431" fill="none" stroke="#6c8390" stroke-width="1.2"/><g transform="translate(622 318) rotate(-48) scale(0.59)"><path d="M0 0 Q-12 -23 0 -58 Q10 -20 0 0Z" fill="#7790a0"/><path d="M0 -3L0 -54" stroke="#0b2034" stroke-width="1"/></g><g transform="translate(608 348) rotate(135) scale(0.59)"><path d="M0 0 Q-12 -23 0 -58 Q10 -20 0 0Z" fill="#7790a0"/><path d="M0 -3L0 -54" stroke="#0b2034" stroke-width="1"/></g><path d="M65 381C125 421 5 483 65 544" fill="none" stroke="#6c8390" stroke-width="1.2"/><g transform="translate(72 431) rotate(-48) scale(0.59)"><path d="M0 0 Q-12 -23 0 -58 Q10 -20 0 0Z" fill="#7790a0"/><path d="M0 -3L0 -54" stroke="#0b2034" stroke-width="1"/></g><g transform="translate(58 461) rotate(135) scale(0.59)"><path d="M0 0 Q-12 -23 0 -58 Q10 -20 0 0Z" fill="#7790a0"/><path d="M0 -3L0 -54" stroke="#0b2034" stroke-width="1"/></g><ellipse cx="87" cy="474" rx="3.5" ry="7" fill="#b6a071"/><path d="M175 381C235 421 115 483 175 544" fill="none" stroke="#6c8390" stroke-width="1.2"/><g transform="translate(182 431) rotate(-48) scale(0.59)"><path d="M0 0 Q-12 -23 0 -58 Q10 -20 0 0Z" fill="#7790a0"/><path d="M0 -3L0 -54" stroke="#0b2034" stroke-width="1"/></g><g transform="translate(168 461) rotate(135) scale(0.59)"><path d="M0 0 Q-12 -23 0 -58 Q10 -20 0 0Z" fill="#7790a0"/><path d="M0 -3L0 -54" stroke="#0b2034" stroke-width="1"/></g><path d="M285 381C345 421 225 483 285 544" fill="none" stroke="#6c8390" stroke-width="1.2"/><g transform="translate(292 431) rotate(-48) scale(0.59)"><path d="M0 0 Q-12 -23 0 -58 Q10 -20 0 0Z" fill="#7790a0"/><path d="M0 -3L0 -54" stroke="#0b2034" stroke-width="1"/></g><g transform="translate(278 461) rotate(135) scale(0.59)"><path d="M0 0 Q-12 -23 0 -58 Q10 -20 0 0Z" fill="#7790a0"/><path d="M0 -3L0 -54" stroke="#0b2034" stroke-width="1"/></g><path d="M395 381C455 421 335 483 395 544" fill="none" stroke="#6c8390" stroke-width="1.2"/><g transform="translate(402 431) rotate(-48) scale(0.59)"><path d="M0 0 Q-12 -23 0 -58 Q10 -20 0 0Z" fill="#7790a0"/><path d="M0 -3L0 -54" stroke="#0b2034" stroke-width="1"/></g><g transform="translate(388 461) rotate(135) scale(0.59)"><path d="M0 0 Q-12 -23 0 -58 Q10 -20 0 0Z" fill="#7790a0"/><path d="M0 -3L0 -54" stroke="#0b2034" stroke-width="1"/></g><ellipse cx="417" cy="474" rx="3.5" ry="7" fill="#b6a071"/><path d="M505 381C565 421 445 483 505 544" fill="none" stroke="#6c8390" stroke-width="1.2"/><g transform="translate(512 431) rotate(-48) scale(0.59)"><path d="M0 0 Q-12 -23 0 -58 Q10 -20 0 0Z" fill="#7790a0"/><path d="M0 -3L0 -54" stroke="#0b2034" stroke-width="1"/></g><g transform="translate(498 461) rotate(135) scale(0.59)"><path d="M0 0 Q-12 -23 0 -58 Q10 -20 0 0Z" fill="#7790a0"/><path d="M0 -3L0 -54" stroke="#0b2034" stroke-width="1"/></g><path d="M615 381C675 421 555 483 615 544" fill="none" stroke="#6c8390" stroke-width="1.2"/><g transform="translate(622 431) rotate(-48) scale(0.59)"><path d="M0 0 Q-12 -23 0 -58 Q10 -20 0 0Z" fill="#7790a0"/><path d="M0 -3L0 -54" stroke="#0b2034" stroke-width="1"/></g><g transform="translate(608 461) rotate(135) scale(0.59)"><path d="M0 0 Q-12 -23 0 -58 Q10 -20 0 0Z" fill="#7790a0"/><path d="M0 -3L0 -54" stroke="#0b2034" stroke-width="1"/></g><path d="M65 494C125 534 5 596 65 657" fill="none" stroke="#6c8390" stroke-width="1.2"/><g transform="translate(72 544) rotate(-48) scale(0.59)"><path d="M0 0 Q-12 -23 0 -58 Q10 -20 0 0Z" fill="#7790a0"/><path d="M0 -3L0 -54" stroke="#0b2034" stroke-width="1"/></g><g transform="translate(58 574) rotate(135) scale(0.59)"><path d="M0 0 Q-12 -23 0 -58 Q10 -20 0 0Z" fill="#7790a0"/><path d="M0 -3L0 -54" stroke="#0b2034" stroke-width="1"/></g><path d="M175 494C235 534 115 596 175 657" fill="none" stroke="#6c8390" stroke-width="1.2"/><g transform="translate(182 544) rotate(-48) scale(0.59)"><path d="M0 0 Q-12 -23 0 -58 Q10 -20 0 0Z" fill="#7790a0"/><path d="M0 -3L0 -54" stroke="#0b2034" stroke-width="1"/></g><g transform="translate(168 574) rotate(135) scale(0.59)"><path d="M0 0 Q-12 -23 0 -58 Q10 -20 0 0Z" fill="#7790a0"/><path d="M0 -3L0 -54" stroke="#0b2034" stroke-width="1"/></g><path d="M285 494C345 534 225 596 285 657" fill="none" stroke="#6c8390" stroke-width="1.2"/><g transform="translate(292 544) rotate(-48) scale(0.59)"><path d="M0 0 Q-12 -23 0 -58 Q10 -20 0 0Z" fill="#7790a0"/><path d="M0 -3L0 -54" stroke="#0b2034" stroke-width="1"/></g><g transform="translate(278 574) rotate(135) scale(0.59)"><path d="M0 0 Q-12 -23 0 -58 Q10 -20 0 0Z" fill="#7790a0"/><path d="M0 -3L0 -54" stroke="#0b2034" stroke-width="1"/></g><ellipse cx="307" cy="587" rx="3.5" ry="7" fill="#b6a071"/><path d="M395 494C455 534 335 596 395 657" fill="none" stroke="#6c8390" stroke-width="1.2"/><g transform="translate(402 544) rotate(-48) scale(0.59)"><path d="M0 0 Q-12 -23 0 -58 Q10 -20 0 0Z" fill="#7790a0"/><path d="M0 -3L0 -54" stroke="#0b2034" stroke-width="1"/></g><g transform="translate(388 574) rotate(135) scale(0.59)"><path d="M0 0 Q-12 -23 0 -58 Q10 -20 0 0Z" fill="#7790a0"/><path d="M0 -3L0 -54" stroke="#0b2034" stroke-width="1"/></g><path d="M505 494C565 534 445 596 505 657" fill="none" stroke="#6c8390" stroke-width="1.2"/><g transform="translate(512 544) rotate(-48) scale(0.59)"><path d="M0 0 Q-12 -23 0 -58 Q10 -20 0 0Z" fill="#7790a0"/><path d="M0 -3L0 -54" stroke="#0b2034" stroke-width="1"/></g><g transform="translate(498 574) rotate(135) scale(0.59)"><path d="M0 0 Q-12 -23 0 -58 Q10 -20 0 0Z" fill="#7790a0"/><path d="M0 -3L0 -54" stroke="#0b2034" stroke-width="1"/></g><path d="M615 494C675 534 555 596 615 657" fill="none" stroke="#6c8390" stroke-width="1.2"/><g transform="translate(622 544) rotate(-48) scale(0.59)"><path d="M0 0 Q-12 -23 0 -58 Q10 -20 0 0Z" fill="#7790a0"/><path d="M0 -3L0 -54" stroke="#0b2034" stroke-width="1"/></g><g transform="translate(608 574) rotate(135) scale(0.59)"><path d="M0 0 Q-12 -23 0 -58 Q10 -20 0 0Z" fill="#7790a0"/><path d="M0 -3L0 -54" stroke="#0b2034" stroke-width="1"/></g><ellipse cx="637" cy="587" rx="3.5" ry="7" fill="#b6a071"/><path d="M65 607C125 647 5 709 65 770" fill="none" stroke="#6c8390" stroke-width="1.2"/><g transform="translate(72 657) rotate(-48) scale(0.59)"><path d="M0 0 Q-12 -23 0 -58 Q10 -20 0 0Z" fill="#7790a0"/><path d="M0 -3L0 -54" stroke="#0b2034" stroke-width="1"/></g><g transform="translate(58 687) rotate(135) scale(0.59)"><path d="M0 0 Q-12 -23 0 -58 Q10 -20 0 0Z" fill="#7790a0"/><path d="M0 -3L0 -54" stroke="#0b2034" stroke-width="1"/></g><path d="M175 607C235 647 115 709 175 770" fill="none" stroke="#6c8390" stroke-width="1.2"/><g transform="translate(182 657) rotate(-48) scale(0.59)"><path d="M0 0 Q-12 -23 0 -58 Q10 -20 0 0Z" fill="#7790a0"/><path d="M0 -3L0 -54" stroke="#0b2034" stroke-width="1"/></g><g transform="translate(168 687) rotate(135) scale(0.59)"><path d="M0 0 Q-12 -23 0 -58 Q10 -20 0 0Z" fill="#7790a0"/><path d="M0 -3L0 -54" stroke="#0b2034" stroke-width="1"/></g><ellipse cx="197" cy="700" rx="3.5" ry="7" fill="#b6a071"/><path d="M285 607C345 647 225 709 285 770" fill="none" stroke="#6c8390" stroke-width="1.2"/><g transform="translate(292 657) rotate(-48) scale(0.59)"><path d="M0 0 Q-12 -23 0 -58 Q10 -20 0 0Z" fill="#7790a0"/><path d="M0 -3L0 -54" stroke="#0b2034" stroke-width="1"/></g><g transform="translate(278 687) rotate(135) scale(0.59)"><path d="M0 0 Q-12 -23 0 -58 Q10 -20 0 0Z" fill="#7790a0"/><path d="M0 -3L0 -54" stroke="#0b2034" stroke-width="1"/></g><path d="M395 607C455 647 335 709 395 770" fill="none" stroke="#6c8390" stroke-width="1.2"/><g transform="translate(402 657) rotate(-48) scale(0.59)"><path d="M0 0 Q-12 -23 0 -58 Q10 -20 0 0Z" fill="#7790a0"/><path d="M0 -3L0 -54" stroke="#0b2034" stroke-width="1"/></g><g transform="translate(388 687) rotate(135) scale(0.59)"><path d="M0 0 Q-12 -23 0 -58 Q10 -20 0 0Z" fill="#7790a0"/><path d="M0 -3L0 -54" stroke="#0b2034" stroke-width="1"/></g><path d="M505 607C565 647 445 709 505 770" fill="none" stroke="#6c8390" stroke-width="1.2"/><g transform="translate(512 657) rotate(-48) scale(0.59)"><path d="M0 0 Q-12 -23 0 -58 Q10 -20 0 0Z" fill="#7790a0"/><path d="M0 -3L0 -54" stroke="#0b2034" stroke-width="1"/></g><g transform="translate(498 687) rotate(135) scale(0.59)"><path d="M0 0 Q-12 -23 0 -58 Q10 -20 0 0Z" fill="#7790a0"/><path d="M0 -3L0 -54" stroke="#0b2034" stroke-width="1"/></g><ellipse cx="527" cy="700" rx="3.5" ry="7" fill="#b6a071"/><path d="M615 607C675 647 555 709 615 770" fill="none" stroke="#6c8390" stroke-width="1.2"/><g transform="translate(622 657) rotate(-48) scale(0.59)"><path d="M0 0 Q-12 -23 0 -58 Q10 -20 0 0Z" fill="#7790a0"/><path d="M0 -3L0 -54" stroke="#0b2034" stroke-width="1"/></g><g transform="translate(608 687) rotate(135) scale(0.59)"><path d="M0 0 Q-12 -23 0 -58 Q10 -20 0 0Z" fill="#7790a0"/><path d="M0 -3L0 -54" stroke="#0b2034" stroke-width="1"/></g><path d="M65 720C125 760 5 822 65 883" fill="none" stroke="#6c8390" stroke-width="1.2"/><g transform="translate(72 770) rotate(-48) scale(0.59)"><path d="M0 0 Q-12 -23 0 -58 Q10 -20 0 0Z" fill="#7790a0"/><path d="M0 -3L0 -54" stroke="#0b2034" stroke-width="1"/></g><g transform="translate(58 800) rotate(135) scale(0.59)"><path d="M0 0 Q-12 -23 0 -58 Q10 -20 0 0Z" fill="#7790a0"/><path d="M0 -3L0 -54" stroke="#0b2034" stroke-width="1"/></g><ellipse cx="87" cy="813" rx="3.5" ry="7" fill="#b6a071"/><path d="M175 720C235 760 115 822 175 883" fill="none" stroke="#6c8390" stroke-width="1.2"/><g transform="translate(182 770) rotate(-48) scale(0.59)"><path d="M0 0 Q-12 -23 0 -58 Q10 -20 0 0Z" fill="#7790a0"/><path d="M0 -3L0 -54" stroke="#0b2034" stroke-width="1"/></g><g transform="translate(168 800) rotate(135) scale(0.59)"><path d="M0 0 Q-12 -23 0 -58 Q10 -20 0 0Z" fill="#7790a0"/><path d="M0 -3L0 -54" stroke="#0b2034" stroke-width="1"/></g><path d="M285 720C345 760 225 822 285 883" fill="none" stroke="#6c8390" stroke-width="1.2"/><g transform="translate(292 770) rotate(-48) scale(0.59)"><path d="M0 0 Q-12 -23 0 -58 Q10 -20 0 0Z" fill="#7790a0"/><path d="M0 -3L0 -54" stroke="#0b2034" stroke-width="1"/></g><g transform="translate(278 800) rotate(135) scale(0.59)"><path d="M0 0 Q-12 -23 0 -58 Q10 -20 0 0Z" fill="#7790a0"/><path d="M0 -3L0 -54" stroke="#0b2034" stroke-width="1"/></g><path d="M395 720C455 760 335 822 395 883" fill="none" stroke="#6c8390" stroke-width="1.2"/><g transform="translate(402 770) rotate(-48) scale(0.59)"><path d="M0 0 Q-12 -23 0 -58 Q10 -20 0 0Z" fill="#7790a0"/><path d="M0 -3L0 -54" stroke="#0b2034" stroke-width="1"/></g><g transform="translate(388 800) rotate(135) scale(0.59)"><path d="M0 0 Q-12 -23 0 -58 Q10 -20 0 0Z" fill="#7790a0"/><path d="M0 -3L0 -54" stroke="#0b2034" stroke-width="1"/></g><ellipse cx="417" cy="813" rx="3.5" ry="7" fill="#b6a071"/><path d="M505 720C565 760 445 822 505 883" fill="none" stroke="#6c8390" stroke-width="1.2"/><g transform="translate(512 770) rotate(-48) scale(0.59)"><path d="M0 0 Q-12 -23 0 -58 Q10 -20 0 0Z" fill="#7790a0"/><path d="M0 -3L0 -54" stroke="#0b2034" stroke-width="1"/></g><g transform="translate(498 800) rotate(135) scale(0.59)"><path d="M0 0 Q-12 -23 0 -58 Q10 -20 0 0Z" fill="#7790a0"/><path d="M0 -3L0 -54" stroke="#0b2034" stroke-width="1"/></g><path d="M615 720C675 760 555 822 615 883" fill="none" stroke="#6c8390" stroke-width="1.2"/><g transform="translate(622 770) rotate(-48) scale(0.59)"><path d="M0 0 Q-12 -23 0 -58 Q10 -20 0 0Z" fill="#7790a0"/><path d="M0 -3L0 -54" stroke="#0b2034" stroke-width="1"/></g><g transform="translate(608 800) rotate(135) scale(0.59)"><path d="M0 0 Q-12 -23 0 -58 Q10 -20 0 0Z" fill="#7790a0"/><path d="M0 -3L0 -54" stroke="#0b2034" stroke-width="1"/></g><path d="M65 833C125 873 5 935 65 996" fill="none" stroke="#6c8390" stroke-width="1.2"/><g transform="translate(72 883) rotate(-48) scale(0.59)"><path d="M0 0 Q-12 -23 0 -58 Q10 -20 0 0Z" fill="#7790a0"/><path d="M0 -3L0 -54" stroke="#0b2034" stroke-width="1"/></g><g transform="translate(58 913) rotate(135) scale(0.59)"><path d="M0 0 Q-12 -23 0 -58 Q10 -20 0 0Z" fill="#7790a0"/><path d="M0 -3L0 -54" stroke="#0b2034" stroke-width="1"/></g><path d="M175 833C235 873 115 935 175 996" fill="none" stroke="#6c8390" stroke-width="1.2"/><g transform="translate(182 883) rotate(-48) scale(0.59)"><path d="M0 0 Q-12 -23 0 -58 Q10 -20 0 0Z" fill="#7790a0"/><path d="M0 -3L0 -54" stroke="#0b2034" stroke-width="1"/></g><g transform="translate(168 913) rotate(135) scale(0.59)"><path d="M0 0 Q-12 -23 0 -58 Q10 -20 0 0Z" fill="#7790a0"/><path d="M0 -3L0 -54" stroke="#0b2034" stroke-width="1"/></g><path d="M285 833C345 873 225 935 285 996" fill="none" stroke="#6c8390" stroke-width="1.2"/><g transform="translate(292 883) rotate(-48) scale(0.59)"><path d="M0 0 Q-12 -23 0 -58 Q10 -20 0 0Z" fill="#7790a0"/><path d="M0 -3L0 -54" stroke="#0b2034" stroke-width="1"/></g><g transform="translate(278 913) rotate(135) scale(0.59)"><path d="M0 0 Q-12 -23 0 -58 Q10 -20 0 0Z" fill="#7790a0"/><path d="M0 -3L0 -54" stroke="#0b2034" stroke-width="1"/></g><ellipse cx="307" cy="926" rx="3.5" ry="7" fill="#b6a071"/><path d="M395 833C455 873 335 935 395 996" fill="none" stroke="#6c8390" stroke-width="1.2"/><g transform="translate(402 883) rotate(-48) scale(0.59)"><path d="M0 0 Q-12 -23 0 -58 Q10 -20 0 0Z" fill="#7790a0"/><path d="M0 -3L0 -54" stroke="#0b2034" stroke-width="1"/></g><g transform="translate(388 913) rotate(135) scale(0.59)"><path d="M0 0 Q-12 -23 0 -58 Q10 -20 0 0Z" fill="#7790a0"/><path d="M0 -3L0 -54" stroke="#0b2034" stroke-width="1"/></g><path d="M505 833C565 873 445 935 505 996" fill="none" stroke="#6c8390" stroke-width="1.2"/><g transform="translate(512 883) rotate(-48) scale(0.59)"><path d="M0 0 Q-12 -23 0 -58 Q10 -20 0 0Z" fill="#7790a0"/><path d="M0 -3L0 -54" stroke="#0b2034" stroke-width="1"/></g><g transform="translate(498 913) rotate(135) scale(0.59)"><path d="M0 0 Q-12 -23 0 -58 Q10 -20 0 0Z" fill="#7790a0"/><path d="M0 -3L0 -54" stroke="#0b2034" stroke-width="1"/></g><path d="M615 833C675 873 555 935 615 996" fill="none" stroke="#6c8390" stroke-width="1.2"/><g transform="translate(622 883) rotate(-48) scale(0.59)"><path d="M0 0 Q-12 -23 0 -58 Q10 -20 0 0Z" fill="#7790a0"/><path d="M0 -3L0 -54" stroke="#0b2034" stroke-width="1"/></g><g transform="translate(608 913) rotate(135) scale(0.59)"><path d="M0 0 Q-12 -23 0 -58 Q10 -20 0 0Z" fill="#7790a0"/><path d="M0 -3L0 -54" stroke="#0b2034" stroke-width="1"/></g><ellipse cx="637" cy="926" rx="3.5" ry="7" fill="#b6a071"/><path d="M65 946C125 986 5 1048 65 1109" fill="none" stroke="#6c8390" stroke-width="1.2"/><g transform="translate(72 996) rotate(-48) scale(0.59)"><path d="M0 0 Q-12 -23 0 -58 Q10 -20 0 0Z" fill="#7790a0"/><path d="M0 -3L0 -54" stroke="#0b2034" stroke-width="1"/></g><g transform="translate(58 1026) rotate(135) scale(0.59)"><path d="M0 0 Q-12 -23 0 -58 Q10 -20 0 0Z" fill="#7790a0"/><path d="M0 -3L0 -54" stroke="#0b2034" stroke-width="1"/></g><path d="M175 946C235 986 115 1048 175 1109" fill="none" stroke="#6c8390" stroke-width="1.2"/><g transform="translate(182 996) rotate(-48) scale(0.59)"><path d="M0 0 Q-12 -23 0 -58 Q10 -20 0 0Z" fill="#7790a0"/><path d="M0 -3L0 -54" stroke="#0b2034" stroke-width="1"/></g><g transform="translate(168 1026) rotate(135) scale(0.59)"><path d="M0 0 Q-12 -23 0 -58 Q10 -20 0 0Z" fill="#7790a0"/><path d="M0 -3L0 -54" stroke="#0b2034" stroke-width="1"/></g><ellipse cx="197" cy="1039" rx="3.5" ry="7" fill="#b6a071"/><path d="M285 946C345 986 225 1048 285 1109" fill="none" stroke="#6c8390" stroke-width="1.2"/><g transform="translate(292 996) rotate(-48) scale(0.59)"><path d="M0 0 Q-12 -23 0 -58 Q10 -20 0 0Z" fill="#7790a0"/><path d="M0 -3L0 -54" stroke="#0b2034" stroke-width="1"/></g><g transform="translate(278 1026) rotate(135) scale(0.59)"><path d="M0 0 Q-12 -23 0 -58 Q10 -20 0 0Z" fill="#7790a0"/><path d="M0 -3L0 -54" stroke="#0b2034" stroke-width="1"/></g><path d="M395 946C455 986 335 1048 395 1109" fill="none" stroke="#6c8390" stroke-width="1.2"/><g transform="translate(402 996) rotate(-48) scale(0.59)"><path d="M0 0 Q-12 -23 0 -58 Q10 -20 0 0Z" fill="#7790a0"/><path d="M0 -3L0 -54" stroke="#0b2034" stroke-width="1"/></g><g transform="translate(388 1026) rotate(135) scale(0.59)"><path d="M0 0 Q-12 -23 0 -58 Q10 -20 0 0Z" fill="#7790a0"/><path d="M0 -3L0 -54" stroke="#0b2034" stroke-width="1"/></g><path d="M505 946C565 986 445 1048 505 1109" fill="none" stroke="#6c8390" stroke-width="1.2"/><g transform="translate(512 996) rotate(-48) scale(0.59)"><path d="M0 0 Q-12 -23 0 -58 Q10 -20 0 0Z" fill="#7790a0"/><path d="M0 -3L0 -54" stroke="#0b2034" stroke-width="1"/></g><g transform="translate(498 1026) rotate(135) scale(0.59)"><path d="M0 0 Q-12 -23 0 -58 Q10 -20 0 0Z" fill="#7790a0"/><path d="M0 -3L0 -54" stroke="#0b2034" stroke-width="1"/></g><ellipse cx="527" cy="1039" rx="3.5" ry="7" fill="#b6a071"/><path d="M615 946C675 986 555 1048 615 1109" fill="none" stroke="#6c8390" stroke-width="1.2"/><g transform="translate(622 996) rotate(-48) scale(0.59)"><path d="M0 0 Q-12 -23 0 -58 Q10 -20 0 0Z" fill="#7790a0"/><path d="M0 -3L0 -54" stroke="#0b2034" stroke-width="1"/></g><g transform="translate(608 1026) rotate(135) scale(0.59)"><path d="M0 0 Q-12 -23 0 -58 Q10 -20 0 0Z" fill="#7790a0"/><path d="M0 -3L0 -54" stroke="#0b2034" stroke-width="1"/></g><path d="M65 1059C125 1099 5 1161 65 1222" fill="none" stroke="#6c8390" stroke-width="1.2"/><g transform="translate(72 1109) rotate(-48) scale(0.59)"><path d="M0 0 Q-12 -23 0 -58 Q10 -20 0 0Z" fill="#7790a0"/><path d="M0 -3L0 -54" stroke="#0b2034" stroke-width="1"/></g><g transform="translate(58 1139) rotate(135) scale(0.59)"><path d="M0 0 Q-12 -23 0 -58 Q10 -20 0 0Z" fill="#7790a0"/><path d="M0 -3L0 -54" stroke="#0b2034" stroke-width="1"/></g><ellipse cx="87" cy="1152" rx="3.5" ry="7" fill="#b6a071"/><path d="M175 1059C235 1099 115 1161 175 1222" fill="none" stroke="#6c8390" stroke-width="1.2"/><g transform="translate(182 1109) rotate(-48) scale(0.59)"><path d="M0 0 Q-12 -23 0 -58 Q10 -20 0 0Z" fill="#7790a0"/><path d="M0 -3L0 -54" stroke="#0b2034" stroke-width="1"/></g><g transform="translate(168 1139) rotate(135) scale(0.59)"><path d="M0 0 Q-12 -23 0 -58 Q10 -20 0 0Z" fill="#7790a0"/><path d="M0 -3L0 -54" stroke="#0b2034" stroke-width="1"/></g><path d="M285 1059C345 1099 225 1161 285 1222" fill="none" stroke="#6c8390" stroke-width="1.2"/><g transform="translate(292 1109) rotate(-48) scale(0.59)"><path d="M0 0 Q-12 -23 0 -58 Q10 -20 0 0Z" fill="#7790a0"/><path d="M0 -3L0 -54" stroke="#0b2034" stroke-width="1"/></g><g transform="translate(278 1139) rotate(135) scale(0.59)"><path d="M0 0 Q-12 -23 0 -58 Q10 -20 0 0Z" fill="#7790a0"/><path d="M0 -3L0 -54" stroke="#0b2034" stroke-width="1"/></g><path d="M395 1059C455 1099 335 1161 395 1222" fill="none" stroke="#6c8390" stroke-width="1.2"/><g transform="translate(402 1109) rotate(-48) scale(0.59)"><path d="M0 0 Q-12 -23 0 -58 Q10 -20 0 0Z" fill="#7790a0"/><path d="M0 -3L0 -54" stroke="#0b2034" stroke-width="1"/></g><g transform="translate(388 1139) rotate(135) scale(0.59)"><path d="M0 0 Q-12 -23 0 -58 Q10 -20 0 0Z" fill="#7790a0"/><path d="M0 -3L0 -54" stroke="#0b2034" stroke-width="1"/></g><ellipse cx="417" cy="1152" rx="3.5" ry="7" fill="#b6a071"/><path d="M505 1059C565 1099 445 1161 505 1222" fill="none" stroke="#6c8390" stroke-width="1.2"/><g transform="translate(512 1109) rotate(-48) scale(0.59)"><path d="M0 0 Q-12 -23 0 -58 Q10 -20 0 0Z" fill="#7790a0"/><path d="M0 -3L0 -54" stroke="#0b2034" stroke-width="1"/></g><g transform="translate(498 1139) rotate(135) scale(0.59)"><path d="M0 0 Q-12 -23 0 -58 Q10 -20 0 0Z" fill="#7790a0"/><path d="M0 -3L0 -54" stroke="#0b2034" stroke-width="1"/></g><path d="M615 1059C675 1099 555 1161 615 1222" fill="none" stroke="#6c8390" stroke-width="1.2"/><g transform="translate(622 1109) rotate(-48) scale(0.59)"><path d="M0 0 Q-12 -23 0 -58 Q10 -20 0 0Z" fill="#7790a0"/><path d="M0 -3L0 -54" stroke="#0b2034" stroke-width="1"/></g><g transform="translate(608 1139) rotate(135) scale(0.59)"><path d="M0 0 Q-12 -23 0 -58 Q10 -20 0 0Z" fill="#7790a0"/><path d="M0 -3L0 -54" stroke="#0b2034" stroke-width="1"/></g></g></svg>