<svg xmlns="http://www.w3.org/2000/svg" width="896" height="1536" viewBox="0 0 896 1536" role="img" aria-label="05 — The Herbarium">
<title>05 — The Herbarium</title><desc>Original vector card back for Olivia Arcana. Fine engraved lines, exact olive brand geometry. No generatively redrawn logo.</desc>
<defs>
<radialGradient id="paper" cx="43%" cy="35%" r="84%"><stop stop-color="#102c43"/><stop offset="1" stop-color="#07192b"/></radialGradient>
<linearGradient id="foil" x1="0" y1="0" x2="1" y2=".6"><stop stop-color="#ad9864"/><stop offset=".48" stop-color="#e2d2a7"/><stop offset="1" stop-color="#9c8758"/></linearGradient>
<filter id="grain" x="0" y="0" width="100%" height="100%"><feTurbulence baseFrequency=".84" numOctaves="3" seed="19" stitchTiles="stitch"/><feColorMatrix type="saturate" values="0"/></filter>
<clipPath id="trim"><rect width="896" height="1536" rx="24"/></clipPath>
<mask id="fruit-cut" maskUnits="userSpaceOnUse" x="-30" y="-30" width="60" height="60"><rect x="-30" y="-30" width="60" height="60" fill="white"/><ellipse cx="0" cy="-13.5" rx="1.7" ry="2.2" fill="black"/></mask>
</defs><g clip-path="url(#trim)"><rect width="896" height="1536" fill="url(#paper)"/><rect width="896" height="1536" filter="url(#grain)" opacity=".027"/><rect x="66" y="66" width="764" height="1404" rx="6" fill="none" stroke="url(#foil)" stroke-width="0.95" opacity="0.72"/><g transform="translate(190 636) rotate(-6) scale(0.94)"><path d="M0 0 C-20 -95 28 -188 0 -292" fill="none" stroke="url(#foil)" stroke-width="1.2234042553191489" opacity="1" stroke-linecap="round" stroke-linejoin="round"/><path d="M-4.066100329998166 -28 C16.933899670001836 -32 39.933899670001836 -52 44.933899670001836 -71 C22.933899670001836 -70 3.933899670001834 -47 -4.066100329998166 -28Z" fill="none" stroke="url(#foil)" stroke-width="1.0106382978723405" opacity="0.85" stroke-linecap="round" stroke-linejoin="round"/><path d="M-4.066100329998166 -28 Q23.933899670001836 -47 44.933899670001836 -71" fill="none" stroke="url(#foil)" stroke-width="0.6914893617021277" opacity="0.65" stroke-linecap="round" stroke-linejoin="round"/><path d="M-4.904663058636338 -61 C-25.904663058636338 -65 -48.90466305863634 -85 -53.90466305863634 -104 C-31.904663058636338 -103 -12.904663058636338 -80 -4.904663058636338 -61Z" fill="none" stroke="url(#foil)" stroke-width="1.0106382978723405" opacity="0.85" stroke-linecap="round" stroke-linejoin="round"/><path d="M-4.904663058636338 -61 Q-32.90466305863634 -80 -53.90466305863634 -104" fill="none" stroke="url(#foil)" stroke-width="0.6914893617021277" opacity="0.65" stroke-linecap="round" stroke-linejoin="round"/><path d="M-2.746138010855164 -94 C18.253861989144838 -98 41.25386198914484 -118 46.25386198914484 -137 C24.253861989144838 -136 5.253861989144836 -113 -2.746138010855164 -94Z" fill="none" stroke="url(#foil)" stroke-width="1.0106382978723405" opacity="0.85" stroke-linecap="round" stroke-linejoin="round"/><path d="M-2.746138010855164 -94 Q25.253861989144838 -113 46.25386198914484 -137" fill="none" stroke="url(#foil)" stroke-width="0.6914893617021277" opacity="0.65" stroke-linecap="round" stroke-linejoin="round"/><path d="M1.0349292111856645 -127 C-19.965070788814337 -131 -42.96507078881434 -151 -47.96507078881434 -170 C-25.965070788814337 -169 -6.9650707888143355 -146 1.0349292111856645 -127Z" fill="none" stroke="url(#foil)" stroke-width="1.0106382978723405" opacity="0.85" stroke-linecap="round" stroke-linejoin="round"/><path d="M1.0349292111856645 -127 Q-26.965070788814337 -146 -47.96507078881434 -170" fill="none" stroke="url(#foil)" stroke-width="0.6914893617021277" opacity="0.65" stroke-linecap="round" stroke-linejoin="round"/><path d="M5.085536055170754 -160 C26.085536055170753 -164 49.085536055170756 -184 54.085536055170756 -203 C32.085536055170756 -202 13.085536055170753 -179 5.085536055170754 -160Z" fill="none" stroke="url(#foil)" stroke-width="1.0106382978723405" opacity="0.85" stroke-linecap="round" stroke-linejoin="round"/><path d="M5.085536055170754 -160 Q33.085536055170756 -179 54.085536055170756 -203" fill="none" stroke="url(#foil)" stroke-width="0.6914893617021277" opacity="0.65" stroke-linecap="round" stroke-linejoin="round"/><path d="M8.120040634604074 -193 C-12.879959365395926 -197 -35.879959365395926 -217 -40.879959365395926 -236 C-18.879959365395926 -235 0.12004063460407366 -212 8.120040634604074 -193Z" fill="none" stroke="url(#foil)" stroke-width="1.0106382978723405" opacity="0.85" stroke-linecap="round" stroke-linejoin="round"/><path d="M8.120040634604074 -193 Q-19.879959365395926 -212 -40.879959365395926 -236" fill="none" stroke="url(#foil)" stroke-width="0.6914893617021277" opacity="0.65" stroke-linecap="round" stroke-linejoin="round"/><path d="M8.957934133262338 -226 C29.957934133262338 -230 52.95793413326234 -250 57.95793413326234 -269 C35.95793413326234 -268 16.957934133262338 -245 8.957934133262338 -226Z" fill="none" stroke="url(#foil)" stroke-width="1.0106382978723405" opacity="0.85" stroke-linecap="round" stroke-linejoin="round"/><path d="M8.957934133262338 -226 Q36.95793413326234 -245 57.95793413326234 -269" fill="none" stroke="url(#foil)" stroke-width="0.6914893617021277" opacity="0.65" stroke-linecap="round" stroke-linejoin="round"/></g><g transform="translate(706 900) rotate(174) scale(0.94)"><path d="M0 0 C-20 -95 28 -188 0 -292" fill="none" stroke="url(#foil)" stroke-width="1.2234042553191489" opacity="1" stroke-linecap="round" stroke-linejoin="round"/><path d="M-4.066100329998166 -28 C16.933899670001836 -32 39.933899670001836 -52 44.933899670001836 -71 C22.933899670001836 -70 3.933899670001834 -47 -4.066100329998166 -28Z" fill="none" stroke="url(#foil)" stroke-width="1.0106382978723405" opacity="0.85" stroke-linecap="round" stroke-linejoin="round"/><path d="M-4.066100329998166 -28 Q23.933899670001836 -47 44.933899670001836 -71" fill="none" stroke="url(#foil)" stroke-width="0.6914893617021277" opacity="0.65" stroke-linecap="round" stroke-linejoin="round"/><path d="M-4.904663058636338 -61 C-25.904663058636338 -65 -48.90466305863634 -85 -53.90466305863634 -104 C-31.904663058636338 -103 -12.904663058636338 -80 -4.904663058636338 -61Z" fill="none" stroke="url(#foil)" stroke-width="1.0106382978723405" opacity="0.85" stroke-linecap="round" stroke-linejoin="round"/><path d="M-4.904663058636338 -61 Q-32.90466305863634 -80 -53.90466305863634 -104" fill="none" stroke="url(#foil)" stroke-width="0.6914893617021277" opacity="0.65" stroke-linecap="round" stroke-linejoin="round"/><path d="M-2.746138010855164 -94 C18.253861989144838 -98 41.25386198914484 -118 46.25386198914484 -137 C24.253861989144838 -136 5.253861989144836 -113 -2.746138010855164 -94Z" fill="none" stroke="url(#foil)" stroke-width="1.0106382978723405" opacity="0.85" stroke-linecap="round" stroke-linejoin="round"/><path d="M-2.746138010855164 -94 Q25.253861989144838 -113 46.25386198914484 -137" fill="none" stroke="url(#foil)" stroke-width="0.6914893617021277" opacity="0.65" stroke-linecap="round" stroke-linejoin="round"/><path d="M1.0349292111856645 -127 C-19.965070788814337 -131 -42.96507078881434 -151 -47.96507078881434 -170 C-25.965070788814337 -169 -6.9650707888143355 -146 1.0349292111856645 -127Z" fill="none" stroke="url(#foil)" stroke-width="1.0106382978723405" opacity="0.85" stroke-linecap="round" stroke-linejoin="round"/><path d="M1.0349292111856645 -127 Q-26.965070788814337 -146 -47.96507078881434 -170" fill="none" stroke="url(#foil)" stroke-width="0.6914893617021277" opacity="0.65" stroke-linecap="round" stroke-linejoin="round"/><path d="M5.085536055170754 -160 C26.085536055170753 -164 49.085536055170756 -184 54.085536055170756 -203 C32.085536055170756 -202 13.085536055170753 -179 5.085536055170754 -160Z" fill="none" stroke="url(#foil)" stroke-width="1.0106382978723405" opacity="0.85" stroke-linecap="round" stroke-linejoin="round"/><path d="M5.085536055170754 -160 Q33.085536055170756 -179 54.085536055170756 -203" fill="none" stroke="url(#foil)" stroke-width="0.6914893617021277" opacity="0.65" stroke-linecap="round" stroke-linejoin="round"/><path d="M8.120040634604074 -193 C-12.879959365395926 -197 -35.879959365395926 -217 -40.879959365395926 -236 C-18.879959365395926 -235 0.12004063460407366 -212 8.120040634604074 -193Z" fill="none" stroke="url(#foil)" stroke-width="1.0106382978723405" opacity="0.85" stroke-linecap="round" stroke-linejoin="round"/><path d="M8.120040634604074 -193 Q-19.879959365395926 -212 -40.879959365395926 -236" fill="none" stroke="url(#foil)" stroke-width="0.6914893617021277" opacity="0.65" stroke-linecap="round" stroke-linejoin="round"/><path d="M8.957934133262338 -226 C29.957934133262338 -230 52.95793413326234 -250 57.95793413326234 -269 C35.95793413326234 -268 16.957934133262338 -245 8.957934133262338 -226Z" fill="none" stroke="url(#foil)" stroke-width="1.0106382978723405" opacity="0.85" stroke-linecap="round" stroke-linejoin="round"/><path d="M8.957934133262338 -226 Q36.95793413326234 -245 57.95793413326234 -269" fill="none" stroke="url(#foil)" stroke-width="0.6914893617021277" opacity="0.65" stroke-linecap="round" stroke-linejoin="round"/></g><g transform="translate(706 636) rotate(6) scale(0.94)"><path d="M0 0 C-20 -95 28 -188 0 -292" fill="none" stroke="url(#foil)" stroke-width="1.2234042553191489" opacity="1" stroke-linecap="round" stroke-linejoin="round"/><path d="M-4.066100329998166 -28 C16.933899670001836 -32 39.933899670001836 -52 44.933899670001836 -71 C22.933899670001836 -70 3.933899670001834 -47 -4.066100329998166 -28Z" fill="none" stroke="url(#foil)" stroke-width="1.0106382978723405" opacity="0.85" stroke-linecap="round" stroke-linejoin="round"/><path d="M-4.066100329998166 -28 Q23.933899670001836 -47 44.933899670001836 -71" fill="none" stroke="url(#foil)" stroke-width="0.6914893617021277" opacity="0.65" stroke-linecap="round" stroke-linejoin="round"/><path d="M-4.904663058636338 -61 C-25.904663058636338 -65 -48.90466305863634 -85 -53.90466305863634 -104 C-31.904663058636338 -103 -12.904663058636338 -80 -4.904663058636338 -61Z" fill="none" stroke="url(#foil)" stroke-width="1.0106382978723405" opacity="0.85" stroke-linecap="round" stroke-linejoin="round"/><path d="M-4.904663058636338 -61 Q-32.90466305863634 -80 -53.90466305863634 -104" fill="none" stroke="url(#foil)" stroke-width="0.6914893617021277" opacity="0.65" stroke-linecap="round" stroke-linejoin="round"/><path d="M-2.746138010855164 -94 C18.253861989144838 -98 41.25386198914484 -118 46.25386198914484 -137 C24.253861989144838 -136 5.253861989144836 -113 -2.746138010855164 -94Z" fill="none" stroke="url(#foil)" stroke-width="1.0106382978723405" opacity="0.85" stroke-linecap="round" stroke-linejoin="round"/><path d="M-2.746138010855164 -94 Q25.253861989144838 -113 46.25386198914484 -137" fill="none" stroke="url(#foil)" stroke-width="0.6914893617021277" opacity="0.65" stroke-linecap="round" stroke-linejoin="round"/><path d="M1.0349292111856645 -127 C-19.965070788814337 -131 -42.96507078881434 -151 -47.96507078881434 -170 C-25.965070788814337 -169 -6.9650707888143355 -146 1.0349292111856645 -127Z" fill="none" stroke="url(#foil)" stroke-width="1.0106382978723405" opacity="0.85" stroke-linecap="round" stroke-linejoin="round"/><path d="M1.0349292111856645 -127 Q-26.965070788814337 -146 -47.96507078881434 -170" fill="none" stroke="url(#foil)" stroke-width="0.6914893617021277" opacity="0.65" stroke-linecap="round" stroke-linejoin="round"/><path d="M5.085536055170754 -160 C26.085536055170753 -164 49.085536055170756 -184 54.085536055170756 -203 C32.085536055170756 -202 13.085536055170753 -179 5.085536055170754 -160Z" fill="none" stroke="url(#foil)" stroke-width="1.0106382978723405" opacity="0.85" stroke-linecap="round" stroke-linejoin="round"/><path d="M5.085536055170754 -160 Q33.085536055170756 -179 54.085536055170756 -203" fill="none" stroke="url(#foil)" stroke-width="0.6914893617021277" opacity="0.65" stroke-linecap="round" stroke-linejoin="round"/><path d="M8.120040634604074 -193 C-12.879959365395926 -197 -35.879959365395926 -217 -40.879959365395926 -236 C-18.879959365395926 -235 0.12004063460407366 -212 8.120040634604074 -193Z" fill="none" stroke="url(#foil)" stroke-width="1.0106382978723405" opacity="0.85" stroke-linecap="round" stroke-linejoin="round"/><path d="M8.120040634604074 -193 Q-19.879959365395926 -212 -40.879959365395926 -236" fill="none" stroke="url(#foil)" stroke-width="0.6914893617021277" opacity="0.65" stroke-linecap="round" stroke-linejoin="round"/><path d="M8.957934133262338 -226 C29.957934133262338 -230 52.95793413326234 -250 57.95793413326234 -269 C35.95793413326234 -268 16.957934133262338 -245 8.957934133262338 -226Z" fill="none" stroke="url(#foil)" stroke-width="1.0106382978723405" opacity="0.85" stroke-linecap="round" stroke-linejoin="round"/><path d="M8.957934133262338 -226 Q36.95793413326234 -245 57.95793413326234 -269" fill="none" stroke="url(#foil)" stroke-width="0.6914893617021277" opacity="0.65" stroke-linecap="round" stroke-linejoin="round"/></g><g transform="translate(190 900) rotate(186) scale(0.94)"><path d="M0 0 C-20 -95 28 -188 0 -292" fill="none" stroke="url(#foil)" stroke-width="1.2234042553191489" opacity="1" stroke-linecap="round" stroke-linejoin="round"/><path d="M-4.066100329998166 -28 C16.933899670001836 -32 39.933899670001836 -52 44.933899670001836 -71 C22.933899670001836 -70 3.933899670001834 -47 -4.066100329998166 -28Z" fill="none" stroke="url(#foil)" stroke-width="1.0106382978723405" opacity="0.85" stroke-linecap="round" stroke-linejoin="round"/><path d="M-4.066100329998166 -28 Q23.933899670001836 -47 44.933899670001836 -71" fill="none" stroke="url(#foil)" stroke-width="0.6914893617021277" opacity="0.65" stroke-linecap="round" stroke-linejoin="round"/><path d="M-4.904663058636338 -61 C-25.904663058636338 -65 -48.90466305863634 -85 -53.90466305863634 -104 C-31.904663058636338 -103 -12.904663058636338 -80 -4.904663058636338 -61Z" fill="none" stroke="url(#foil)" stroke-width="1.0106382978723405" opacity="0.85" stroke-linecap="round" stroke-linejoin="round"/><path d="M-4.904663058636338 -61 Q-32.90466305863634 -80 -53.90466305863634 -104" fill="none" stroke="url(#foil)" stroke-width="0.6914893617021277" opacity="0.65" stroke-linecap="round" stroke-linejoin="round"/><path d="M-2.746138010855164 -94 C18.253861989144838 -98 41.25386198914484 -118 46.25386198914484 -137 C24.253861989144838 -136 5.253861989144836 -113 -2.746138010855164 -94Z" fill="none" stroke="url(#foil)" stroke-width="1.0106382978723405" opacity="0.85" stroke-linecap="round" stroke-linejoin="round"/><path d="M-2.746138010855164 -94 Q25.253861989144838 -113 46.25386198914484 -137" fill="none" stroke="url(#foil)" stroke-width="0.6914893617021277" opacity="0.65" stroke-linecap="round" stroke-linejoin="round"/><path d="M1.0349292111856645 -127 C-19.965070788814337 -131 -42.96507078881434 -151 -47.96507078881434 -170 C-25.965070788814337 -169 -6.9650707888143355 -146 1.0349292111856645 -127Z" fill="none" stroke="url(#foil)" stroke-width="1.0106382978723405" opacity="0.85" stroke-linecap="round" stroke-linejoin="round"/><path d="M1.0349292111856645 -127 Q-26.965070788814337 -146 -47.96507078881434 -170" fill="none" stroke="url(#foil)" stroke-width="0.6914893617021277" opacity="0.65" stroke-linecap="round" stroke-linejoin="round"/><path d="M5.085536055170754 -160 C26.085536055170753 -164 49.085536055170756 -184 54.085536055170756 -203 C32.085536055170756 -202 13.085536055170753 -179 5.085536055170754 -160Z" fill="none" stroke="url(#foil)" stroke-width="1.0106382978723405" opacity="0.85" stroke-linecap="round" stroke-linejoin="round"/><path d="M5.085536055170754 -160 Q33.085536055170756 -179 54.085536055170756 -203" fill="none" stroke="url(#foil)" stroke-width="0.6914893617021277" opacity="0.65" stroke-linecap="round" stroke-linejoin="round"/><path d="M8.120040634604074 -193 C-12.879959365395926 -197 -35.879959365395926 -217 -40.879959365395926 -236 C-18.879959365395926 -235 0.12004063460407366 -212 8.120040634604074 -193Z" fill="none" stroke="url(#foil)" stroke-width="1.0106382978723405" opacity="0.85" stroke-linecap="round" stroke-linejoin="round"/><path d="M8.120040634604074 -193 Q-19.879959365395926 -212 -40.879959365395926 -236" fill="none" stroke="url(#foil)" stroke-width="0.6914893617021277" opacity="0.65" stroke-linecap="round" stroke-linejoin="round"/><path d="M8.957934133262338 -226 C29.957934133262338 -230 52.95793413326234 -250 57.95793413326234 -269 C35.95793413326234 -268 16.957934133262338 -245 8.957934133262338 -226Z" fill="none" stroke="url(#foil)" stroke-width="1.0106382978723405" opacity="0.85" stroke-linecap="round" stroke-linejoin="round"/><path d="M8.957934133262338 -226 Q36.95793413326234 -245 57.95793413326234 -269" fill="none" stroke="url(#foil)" stroke-width="0.6914893617021277" opacity="0.65" stroke-linecap="round" stroke-linejoin="round"/></g><g transform="translate(448 768) rotate(0) scale(3.7184115523465704)" fill="none" stroke="url(#foil)" stroke-width="0.3630582524271845" stroke-linecap="round" stroke-linejoin="round"><path d="M 0,12 C 1.6,6 -1.6,0 0,-6 C 1,-10 -0.5,-12 0,-13" mask="url(#fruit-cut)"/><path d="M.428 7H.5 M-.2535 1H-.5 M-.2239 -5H.5"/><path d="M 0.5,7 Q 5.5,3 8.5,5 Q 5.5,8 0.5,7 Z" fill="none"/><path d="M -0.5,1 Q -7,-3 -9.5,-1.5 Q -7,1.5 -0.5,1 Z" fill="none"/><path d="M 0.5,-5 Q 5.5,-9 8.5,-7 Q 5.5,-4 0.5,-5 Z" fill="none"/><ellipse cx="0" cy="-13.5" rx="1.7" ry="2.2"/></g></g></svg>